<svg id="Layer_1" data-name="Layer 1" xmlns="http://www.w3.org/2000/svg" xmlns:xlink="http://www.w3.org/1999/xlink" width="1300" height="1400" viewBox="0 0 1300 1400"><defs><clipPath id="clip-path"><rect x="968.16" y="-7.71" width="344.17" height="252.97" style="fill:none"/></clipPath><clipPath id="clip-path-2"><polygon points="988.67 -57.63 1371.81 85.89 1293.48 294.99 910.35 151.46 988.67 -57.63" style="fill:none"/></clipPath><clipPath id="clip-path-4"><rect x="1050.76" y="176.42" width="254.69" height="60.23" style="fill:none"/></clipPath><clipPath id="clip-path-7"><rect x="1081.74" y="214.28" width="223.71" height="44.74" style="fill:none"/></clipPath><clipPath id="clip-path-10"><rect x="1069.69" y="160.93" width="234.04" height="63.67" style="fill:none"/></clipPath><clipPath id="clip-path-13"><rect x="1078.3" y="195.35" width="234.04" height="53.35" style="fill:none"/></clipPath><clipPath id="clip-path-16"><rect x="1080.02" y="143.72" width="227.15" height="67.11" style="fill:none"/></clipPath><clipPath id="clip-path-19"><rect x="1033.56" y="-38.69" width="12.05" height="27.53" style="fill:none"/></clipPath><clipPath id="clip-path-21"><rect x="1112.71" y="16.38" width="17.21" height="29.25" style="fill:none"/></clipPath><clipPath id="clip-path-24"><rect x="1092.06" y="45.63" width="12.05" height="24.09" style="fill:none"/></clipPath><clipPath id="clip-path-27"><rect x="1024.95" y="64.56" width="10.33" height="29.25" style="fill:none"/></clipPath><clipPath id="clip-path-30"><rect x="963" y="93.82" width="12.05" height="29.25" style="fill:none"/></clipPath><clipPath id="clip-path-33"><rect x="1049.04" y="83.49" width="8.6" height="20.65" style="fill:none"/></clipPath><clipPath id="clip-path-36"><rect x="992.25" y="55.96" width="12.05" height="27.53" style="fill:none"/></clipPath><clipPath id="clip-path-39"><rect x="1016.35" y="-14.6" width="12.05" height="30.98" style="fill:none"/></clipPath><clipPath id="clip-path-42"><rect x="975.05" y="54.24" width="12.05" height="29.25" style="fill:none"/></clipPath><clipPath id="clip-path-45"><rect x="1073.14" y="31.87" width="10.33" height="20.65" style="fill:none"/></clipPath><clipPath id="clip-path-48"><rect x="993.98" y="76.61" width="12.05" height="29.25" style="fill:none"/></clipPath><clipPath id="clip-path-51"><rect x="1045.6" y="19.82" width="10.33" height="24.09" style="fill:none"/></clipPath><clipPath id="clip-path-54"><rect x="1037" y="123.07" width="8.6" height="22.37" style="fill:none"/></clipPath><clipPath id="clip-path-57"><rect x="1064.53" y="105.86" width="10.33" height="18.93" style="fill:none"/></clipPath><clipPath id="clip-path-60"><rect x="1100.67" y="14.66" width="8.6" height="18.93" style="fill:none"/></clipPath><clipPath id="clip-path-63"><rect x="988.81" y="19.82" width="12.05" height="27.53" style="fill:none"/></clipPath><clipPath id="clip-path-66"><rect x="1000.86" y="133.4" width="8.6" height="18.93" style="fill:none"/></clipPath><clipPath id="clip-path-69"><rect x="1083.46" y="83.49" width="8.6" height="20.65" style="fill:none"/></clipPath><clipPath id="clip-path-72"><rect x="1006.02" y="-16.32" width="12.05" height="27.53" style="fill:none"/></clipPath><clipPath id="clip-path-75"><rect x="1047.32" y="45.63" width="10.33" height="24.09" style="fill:none"/></clipPath><clipPath id="clip-path-78"><rect x="1067.97" y="-12.88" width="12.05" height="20.65" style="fill:none"/></clipPath><clipPath id="clip-path-81"><rect x="1064.53" y="11.22" width="10.33" height="22.37" style="fill:none"/></clipPath><clipPath id="clip-path-84"><rect x="1014.63" y="45.63" width="10.33" height="25.81" style="fill:none"/></clipPath><clipPath id="clip-path-87"><rect x="987.09" y="111.03" width="8.6" height="24.09" style="fill:none"/></clipPath><clipPath id="clip-path-90"><rect x="1110.99" y="55.96" width="12.05" height="24.09" style="fill:none"/></clipPath><clipPath id="clip-path-93"><rect x="1071.41" y="66.28" width="8.6" height="18.93" style="fill:none"/></clipPath><clipPath id="clip-path-96"><rect x="983.65" y="-4.27" width="6.88" height="24.09" style="fill:none"/></clipPath><clipPath id="clip-path-99"><rect x="1023.23" y="98.98" width="6.88" height="18.93" style="fill:none"/></clipPath><clipPath id="clip-path-102"><rect x="1047.32" y="-14.6" width="8.6" height="20.65" style="fill:none"/></clipPath><clipPath id="clip-path-105"><rect x="1014.63" y="-42.13" width="10.33" height="17.21" style="fill:none"/></clipPath><clipPath id="clip-path-107"><rect x="1006.02" y="21.54" width="10.33" height="22.37" style="fill:none"/></clipPath><clipPath id="clip-path-110"><rect x="1028.39" y="12.94" width="6.88" height="15.49" style="fill:none"/></clipPath><clipPath id="clip-path-113"><rect x="975.05" y="116.19" width="6.88" height="17.21" style="fill:none"/></clipPath><clipPath id="clip-path-116"><rect x="1030.11" y="43.91" width="5.16" height="12.05" style="fill:none"/></clipPath><clipPath id="clip-path-119"><rect x="-27.61" y="22.16" width="1.72" height="1.72" transform="translate(-24.11 -12.17) rotate(-45)" style="fill:none"/></clipPath><clipPath id="clip-path-120"><rect x="-109.47" y="-158.68" width="165.2" height="166.5" transform="translate(46.6 -43.57) rotate(-46.95)" style="fill:none"/></clipPath><clipPath id="clip-path-121"><rect x="-27.61" y="24.59" width="1.72" height="1.72" transform="translate(-25.83 -11.46) rotate(-45)" style="fill:none"/></clipPath><clipPath id="clip-path-123"><rect x="-17.87" y="31.9" width="1.72" height="1.72" transform="translate(-28.14 -2.43) rotate(-45)" style="fill:none"/></clipPath><clipPath id="clip-path-125"><rect x="-25.17" y="29.46" width="1.72" height="1.72" transform="translate(-28.56 -8.31) rotate(-45)" style="fill:none"/></clipPath><clipPath id="clip-path-127"><rect x="-27.61" y="29.46" width="1.72" height="1.72" transform="translate(-29.27 -10.03) rotate(-45)" style="fill:none"/></clipPath><clipPath id="clip-path-129"><rect x="-20.3" y="29.46" width="1.72" height="1.72" transform="translate(-27.14 -4.87) rotate(-45)" style="fill:none"/></clipPath><clipPath id="clip-path-131"><rect x="-21.52" y="30.68" width="1.72" height="1.72" transform="translate(-28.35 -5.37) rotate(-45)" style="fill:none"/></clipPath><clipPath id="clip-path-133"><rect x="-22.74" y="29.46" width="1.72" height="1.72" transform="translate(-27.85 -6.59) rotate(-45)" style="fill:none"/></clipPath><clipPath id="clip-path-135"><rect x="-17.87" y="29.46" width="1.72" height="1.72" transform="translate(-26.42 -3.15) rotate(-45)" style="fill:none"/></clipPath><clipPath id="clip-path-137"><rect x="-22.74" y="27.03" width="1.72" height="1.72" transform="translate(-26.13 -7.3) rotate(-45)" style="fill:none"/></clipPath><clipPath id="clip-path-139"><rect x="-16.65" y="28.24" width="1.72" height="1.72" transform="translate(-25.21 -2.64) rotate(-45)" style="fill:none"/></clipPath><clipPath id="clip-path-141"><rect x="-28.82" y="23.38" width="1.72" height="1.72" transform="translate(-25.33 -12.67) rotate(-45)" style="fill:none"/></clipPath><clipPath id="clip-path-143"><rect x="-23.96" y="25.81" width="1.72" height="1.72" transform="translate(-25.62 -8.52) rotate(-45)" style="fill:none"/></clipPath><clipPath id="clip-path-145"><rect x="-19.09" y="16.08" width="1.72" height="1.72" transform="translate(-17.31 -7.93) rotate(-45)" style="fill:none"/></clipPath><clipPath id="clip-path-155"><rect x="-25.17" y="31.9" width="1.72" height="1.72" transform="translate(-30.28 -7.6) rotate(-45)" style="fill:none"/></clipPath><clipPath id="clip-path-157"><rect x="-21.52" y="25.81" width="1.72" height="1.72" transform="translate(-24.91 -6.8) rotate(-45)" style="fill:none"/></clipPath><clipPath id="clip-path-159"><rect x="-23.96" y="28.24" width="1.72" height="1.72" transform="translate(-27.34 -7.81) rotate(-45)" style="fill:none"/></clipPath><clipPath id="clip-path-177"><rect x="-16.65" y="25.81" width="1.72" height="1.72" transform="translate(-23.49 -3.36) rotate(-45)" style="fill:none"/></clipPath><clipPath id="clip-path-183"><rect x="-26.39" y="20.94" width="1.72" height="1.72" transform="translate(-22.89 -11.66) rotate(-45)" style="fill:none"/></clipPath><clipPath id="clip-path-185"><rect x="-25.17" y="27.03" width="1.72" height="1.72" transform="translate(-26.84 -9.02) rotate(-45)" style="fill:none"/></clipPath><clipPath id="clip-path-191"><rect x="-27.61" y="27.03" width="1.72" height="1.72" transform="translate(-27.55 -10.74) rotate(-45)" style="fill:none"/></clipPath><clipPath id="clip-path-193"><rect x="-21.52" y="28.24" width="1.72" height="1.72" transform="translate(-26.63 -6.08) rotate(-45)" style="fill:none"/></clipPath><clipPath id="clip-path-199"><rect x="-18.12" y="28.85" width="3.44" height="1.72" transform="translate(-25.81 -2.9) rotate(-45)" style="fill:none"/></clipPath><clipPath id="clip-path-203"><rect x="-23.96" y="30.68" width="1.72" height="1.72" transform="translate(-29.07 -7.09) rotate(-45)" style="fill:none"/></clipPath><clipPath id="clip-path-205"><rect x="-26.39" y="30.68" width="1.72" height="1.72" transform="translate(-29.78 -8.81) rotate(-45)" style="fill:none"/></clipPath><clipPath id="clip-path-211"><rect x="-16.65" y="23.38" width="1.72" height="1.72" transform="translate(-21.76 -4.07) rotate(-45)" style="fill:none"/></clipPath><clipPath id="clip-path-217"><rect x="-15.44" y="29.46" width="1.72" height="1.72" transform="translate(-25.71 -1.43) rotate(-45)" style="fill:none"/></clipPath><clipPath id="clip-path-223"><rect x="-26.39" y="25.81" width="1.72" height="1.72" transform="translate(-26.34 -10.24) rotate(-45)" style="fill:none"/></clipPath><clipPath id="clip-path-225"><rect x="-27.86" y="23.99" width="3.44" height="1.72" transform="translate(-25.22 -11.2) rotate(-45)" style="fill:none"/></clipPath><clipPath id="clip-path-231"><rect x="-26.39" y="28.24" width="1.72" height="1.72" transform="translate(-28.06 -9.53) rotate(-45)" style="fill:none"/></clipPath><clipPath id="clip-path-235"><rect x="-26.39" y="23.38" width="1.72" height="1.72" transform="translate(-24.62 -10.95) rotate(-45)" style="fill:none"/></clipPath><clipPath id="clip-path-239"><rect x="-20.3" y="31.9" width="1.72" height="1.72" transform="translate(-28.86 -4.16) rotate(-45)" style="fill:none"/></clipPath><clipPath id="clip-path-241"><rect x="-19.09" y="30.68" width="1.72" height="1.72" transform="translate(-27.64 -3.65) rotate(-45)" style="fill:none"/></clipPath><clipPath id="clip-path-247"><rect x="-24.21" y="32.5" width="3.44" height="1.72" transform="translate(-30.18 -6.13) rotate(-45)" style="fill:none"/></clipPath><clipPath id="clip-path-255"><rect x="-17.87" y="27.03" width="1.72" height="1.72" transform="translate(-24.7 -3.86) rotate(-45)" style="fill:none"/></clipPath><clipPath id="clip-path-257"><rect x="-22.74" y="31.9" width="1.72" height="1.72" transform="translate(-29.57 -5.88) rotate(-45)" style="fill:none"/></clipPath><clipPath id="clip-path-273"><rect x="-20.3" y="27.03" width="1.72" height="1.72" transform="translate(-25.41 -5.58) rotate(-45)" style="fill:none"/></clipPath><clipPath id="clip-path-275"><rect x="-16.65" y="30.68" width="1.72" height="1.72" transform="translate(-26.93 -1.93) rotate(-45)" style="fill:none"/></clipPath><clipPath id="clip-path-281"><rect x="-16.91" y="30.07" width="3.44" height="1.72" transform="translate(-26.32 -1.68) rotate(-45)" style="fill:none"/></clipPath><clipPath id="clip-path-297"><rect x="-23.96" y="33.11" width="1.72" height="1.72" transform="translate(-30.79 -6.38) rotate(-45)" style="fill:none"/></clipPath><clipPath id="clip-path-299"><rect x="-17.87" y="24.59" width="1.72" height="1.72" transform="translate(-22.98 -4.57) rotate(-45)" style="fill:none"/></clipPath><clipPath id="clip-path-303"><rect x="-15.44" y="31.9" width="1.72" height="1.72" transform="translate(-27.43 -0.71) rotate(-45)" style="fill:none"/></clipPath><clipPath id="clip-path-305"><rect x="-17.26" y="24.34" width="1.72" height="3.44" transform="translate(-23.23 -3.96) rotate(-45)" style="fill:none"/></clipPath><clipPath id="clip-path-315"><rect x="-25.42" y="31.29" width="3.44" height="1.72" transform="translate(-29.67 -7.34) rotate(-45)" style="fill:none"/></clipPath><clipPath id="clip-path-319"><rect x="-19.7" y="31.64" width="1.72" height="3.44" transform="translate(-29.11 -3.55) rotate(-45)" style="fill:none"/></clipPath><clipPath id="clip-path-341"><rect x="-23.35" y="30.43" width="1.72" height="3.44" transform="translate(-29.32 -6.48) rotate(-45)" style="fill:none"/></clipPath><clipPath id="clip-path-357"><rect x="-21.52" y="33.11" width="1.72" height="1.72" transform="translate(-30.07 -4.66) rotate(-45)" style="fill:none"/></clipPath><clipPath id="clip-path-365"><rect x="-16.65" y="33.11" width="1.72" height="1.72" transform="translate(-28.65 -1.22) rotate(-45)" style="fill:none"/></clipPath><clipPath id="clip-path-379"><rect x="-17.26" y="29.21" width="1.72" height="3.44" transform="translate(-26.68 -2.54) rotate(-45)" style="fill:none"/></clipPath><clipPath id="clip-path-383"><rect x="-17.87" y="17.29" width="1.72" height="1.72" transform="translate(-17.82 -6.71) rotate(-45)" style="fill:none"/></clipPath><clipPath id="clip-path-391"><rect x="-28.82" y="20.94" width="1.72" height="1.72" transform="translate(-23.61 -13.39) rotate(-45)" style="fill:none"/></clipPath><clipPath id="clip-path-435"><rect x="-22.74" y="14.86" width="1.72" height="1.72" transform="translate(-17.52 -10.87) rotate(-45)" style="fill:none"/></clipPath><clipPath id="clip-path-439"><rect x="-15.44" y="24.59" width="1.72" height="1.72" transform="translate(-22.27 -2.85) rotate(-45)" style="fill:none"/></clipPath><clipPath id="clip-path-443"><rect x="-22.74" y="24.59" width="1.72" height="1.72" transform="translate(-24.41 -8.01) rotate(-45)" style="fill:none"/></clipPath><clipPath id="clip-path-445"><rect x="-27.61" y="19.73" width="1.72" height="1.72" transform="translate(-22.39 -12.88) rotate(-45)" style="fill:none"/></clipPath><clipPath id="clip-path-457"><rect x="-25.78" y="30.43" width="1.72" height="3.44" transform="translate(-30.03 -8.21) rotate(-45)" style="fill:none"/></clipPath><clipPath id="clip-path-459"><rect x="-26.64" y="27.64" width="3.44" height="1.72" transform="translate(-27.45 -9.27) rotate(-45)" style="fill:none"/></clipPath><clipPath id="clip-path-463"><rect x="-17.87" y="19.73" width="1.72" height="1.72" transform="translate(-19.54 -6) rotate(-45)" style="fill:none"/></clipPath><clipPath id="clip-path-485"><rect x="-15.44" y="27.03" width="1.72" height="1.72" transform="translate(-23.99 -2.14) rotate(-45)" style="fill:none"/></clipPath><clipPath id="clip-path-491"><rect x="-22.99" y="26.42" width="3.44" height="1.72" transform="translate(-25.52 -7.05) rotate(-45)" style="fill:none"/></clipPath><clipPath id="clip-path-511"><rect x="-18.48" y="27.99" width="1.72" height="3.44" transform="translate(-26.17 -3.76) rotate(-45)" style="fill:none"/></clipPath><clipPath id="clip-path-537"><rect x="-25.42" y="23.99" width="3.44" height="1.72" transform="translate(-24.51 -9.48) rotate(-45)" style="fill:none"/></clipPath><clipPath id="clip-path-603"><rect x="-21.77" y="27.64" width="3.44" height="1.72" transform="translate(-26.02 -5.83) rotate(-45)" style="fill:none"/></clipPath><clipPath id="clip-path-627"><rect x="-16.05" y="25.56" width="1.72" height="3.44" transform="translate(-23.74 -2.75) rotate(-45)" style="fill:none"/></clipPath><clipPath id="clip-path-645"><rect x="-21.77" y="32.5" width="3.44" height="1.72" transform="translate(-29.47 -4.41) rotate(-45)" style="fill:none"/></clipPath><clipPath id="clip-path-661"><rect x="-25.42" y="28.85" width="3.44" height="1.72" transform="translate(-27.95 -8.06) rotate(-45)" style="fill:none"/></clipPath><clipPath id="clip-path-663"><rect x="-18.48" y="30.43" width="1.72" height="3.44" transform="translate(-27.89 -3.04) rotate(-45)" style="fill:none"/></clipPath><clipPath id="clip-path-735"><rect x="-17.26" y="26.78" width="1.72" height="3.44" transform="translate(-24.95 -3.25) rotate(-45)" style="fill:none"/></clipPath><clipPath id="clip-path-749"><rect x="-19.09" y="28.24" width="1.72" height="1.72" transform="translate(-25.92 -4.36) rotate(-45)" style="fill:none"/></clipPath><clipPath id="clip-path-751"><rect x="-29.07" y="27.64" width="3.44" height="1.72" transform="translate(-28.16 -11) rotate(-45)" style="fill:none"/></clipPath><clipPath id="clip-path-783"><rect x="-15.44" y="22.16" width="1.72" height="1.72" transform="translate(-20.55 -3.56) rotate(-45)" style="fill:none"/></clipPath><clipPath id="clip-path-793"><rect x="-16.65" y="20.94" width="1.72" height="1.72" transform="translate(-20.04 -4.78) rotate(-45)" style="fill:none"/></clipPath><clipPath id="clip-path-805"><rect x="-16.91" y="32.5" width="3.44" height="1.72" transform="translate(-28.04 -0.97) rotate(-45)" style="fill:none"/></clipPath><clipPath id="clip-path-821"><rect x="-23.96" y="23.38" width="1.72" height="1.72" transform="translate(-23.9 -9.23) rotate(-45)" style="fill:none"/></clipPath><clipPath id="clip-path-823"><rect x="-19.09" y="18.51" width="1.72" height="1.72" transform="translate(-19.04 -7.22) rotate(-45)" style="fill:none"/></clipPath><clipPath id="clip-path-833"><rect x="-26.39" y="18.51" width="1.72" height="1.72" transform="translate(-21.17 -12.38) rotate(-45)" style="fill:none"/></clipPath><clipPath id="clip-path-873"><rect x="-28.21" y="30.43" width="1.72" height="3.44" transform="translate(-30.74 -9.93) rotate(-45)" style="fill:none"/></clipPath><clipPath id="clip-path-875"><rect x="-20.3" y="14.86" width="1.72" height="1.72" transform="translate(-16.81 -9.14) rotate(-45)" style="fill:none"/></clipPath><clipPath id="clip-path-881"><rect x="-31.15" y="26.78" width="5.16" height="3.44" transform="translate(-28.52 -11.86) rotate(-45)" style="fill:none"/></clipPath><clipPath id="clip-path-883"><rect x="-16.3" y="29.82" width="3.44" height="3.44" transform="translate(-26.57 -1.07) rotate(-45)" style="fill:none"/></clipPath><clipPath id="clip-path-889"><rect x="-30.29" y="21.55" width="3.44" height="1.72" transform="translate(-24.22 -13.64) rotate(-45)" style="fill:none"/></clipPath><clipPath id="clip-path-893"><rect x="-28.82" y="25.81" width="1.72" height="1.72" transform="translate(-27.05 -11.96) rotate(-45)" style="fill:none"/></clipPath><clipPath id="clip-path-895"><rect x="-28.82" y="28.24" width="1.72" height="1.72" transform="translate(-28.77 -11.25) rotate(-45)" style="fill:none"/></clipPath><clipPath id="clip-path-899"><rect x="-28.82" y="30.68" width="1.72" height="1.72" transform="translate(-30.49 -10.53) rotate(-45)" style="fill:none"/></clipPath><clipPath id="clip-path-901"><rect x="-16.3" y="27.38" width="3.44" height="3.44" transform="translate(-24.85 -1.78) rotate(-45)" style="fill:none"/></clipPath><clipPath id="clip-path-905"><rect x="-29.07" y="25.2" width="3.44" height="1.72" transform="translate(-26.44 -11.71) rotate(-45)" style="fill:none"/></clipPath><clipPath id="clip-path-935"><rect x="-29.68" y="23.73" width="3.44" height="3.44" transform="translate(-26.19 -12.32) rotate(-45)" style="fill:none"/></clipPath><clipPath id="clip-path-937"><rect x="-29.07" y="30.07" width="3.44" height="1.72" transform="translate(-29.88 -10.28) rotate(-45)" style="fill:none"/></clipPath><clipPath id="clip-path-941"><rect x="-27.61" y="31.9" width="1.72" height="1.72" transform="translate(-31 -9.32) rotate(-45)" style="fill:none"/></clipPath><clipPath id="clip-path-965"><rect x="-28.21" y="25.56" width="1.72" height="3.44" transform="translate(-27.3 -11.35) rotate(-45)" style="fill:none"/></clipPath><clipPath id="clip-path-975"><rect x="-30.29" y="23.99" width="3.44" height="1.72" transform="translate(-25.94 -12.93) rotate(-45)" style="fill:none"/></clipPath><clipPath id="clip-path-985"><rect x="-30.04" y="27.03" width="1.72" height="1.72" transform="translate(-28.27 -12.46) rotate(-45)" style="fill:none"/></clipPath><clipPath id="clip-path-1007"><rect x="-29.43" y="26.78" width="1.72" height="3.44" transform="translate(-28.52 -11.86) rotate(-45)" style="fill:none"/></clipPath><clipPath id="clip-path-1013"><rect x="-30.04" y="22.16" width="1.72" height="1.72" transform="translate(-24.82 -13.89) rotate(-45)" style="fill:none"/></clipPath><clipPath id="clip-path-1017"><rect x="-18.12" y="19.12" width="3.44" height="1.72" transform="translate(-18.93 -5.75) rotate(-45)" style="fill:none"/></clipPath><clipPath id="clip-path-1035"><rect x="-30.04" y="29.46" width="1.72" height="1.72" transform="translate(-29.99 -11.75) rotate(-45)" style="fill:none"/></clipPath><clipPath id="clip-path-1051"><rect x="-30.04" y="24.59" width="1.72" height="1.72" transform="translate(-26.55 -13.18) rotate(-45)" style="fill:none"/></clipPath><clipPath id="clip-path-1059"><rect x="-28.21" y="23.13" width="1.72" height="3.44" transform="translate(-25.58 -12.06) rotate(-45)" style="fill:none"/></clipPath><clipPath id="clip-path-1073"><rect x="-16.65" y="18.51" width="1.72" height="1.72" transform="translate(-18.32 -5.49) rotate(-45)" style="fill:none"/></clipPath><clipPath id="clip-path-1081"><rect x="-21.52" y="13.64" width="1.72" height="1.72" transform="translate(-16.31 -10.36) rotate(-45)" style="fill:none"/></clipPath><clipPath id="clip-path-1111"><rect x="-27" y="29.21" width="1.72" height="3.44" transform="translate(-29.53 -9.42) rotate(-45)" style="fill:none"/></clipPath><clipPath id="clip-path-1117"><rect x="-18.73" y="15.22" width="3.44" height="3.44" transform="translate(-16.96 -7.07) rotate(-45)" style="fill:none"/></clipPath><clipPath id="clip-path-1125"><rect x="-17.87" y="14.86" width="1.72" height="1.72" transform="translate(-16.1 -7.42) rotate(-45)" style="fill:none"/></clipPath><clipPath id="clip-path-1129"><rect x="-30.29" y="28.85" width="3.44" height="1.72" transform="translate(-29.38 -11.5) rotate(-45)" style="fill:none"/></clipPath><clipPath id="clip-path-1139"><rect x="-14.22" y="30.68" width="1.72" height="1.72" transform="translate(-26.21 -0.21) rotate(-45)" style="fill:none"/></clipPath><clipPath id="clip-path-1159"><rect x="-15.69" y="23.99" width="3.44" height="1.72" transform="translate(-21.66 -2.6) rotate(-45)" style="fill:none"/></clipPath><clipPath id="clip-path-1165"><rect x="-16.91" y="25.2" width="3.44" height="1.72" transform="translate(-22.88 -3.1) rotate(-45)" style="fill:none"/></clipPath><clipPath id="clip-path-1169"><rect x="-14.83" y="29.21" width="1.72" height="3.44" transform="translate(-25.96 -0.82) rotate(-45)" style="fill:none"/></clipPath><clipPath id="clip-path-1171"><rect x="-15.69" y="31.29" width="3.44" height="1.72" transform="translate(-26.82 -0.46) rotate(-45)" style="fill:none"/></clipPath><clipPath id="clip-path-1173"><rect x="-29.43" y="21.91" width="1.72" height="3.44" transform="translate(-25.08 -13.28) rotate(-45)" style="fill:none"/></clipPath><clipPath id="clip-path-1245"><rect x="-16.91" y="22.77" width="3.44" height="1.72" transform="translate(-21.16 -3.82) rotate(-45)" style="fill:none"/></clipPath><clipPath id="clip-path-1247"><rect x="-30.29" y="26.42" width="3.44" height="1.72" transform="translate(-27.66 -12.21) rotate(-45)" style="fill:none"/></clipPath><clipPath id="clip-path-1249"><rect x="-20.91" y="13.39" width="1.72" height="3.44" transform="translate(-16.56 -9.75) rotate(-45)" style="fill:none"/></clipPath><clipPath id="clip-path-1259"><rect x="-15.69" y="28.85" width="3.44" height="1.72" transform="translate(-25.1 -1.17) rotate(-45)" style="fill:none"/></clipPath><clipPath id="clip-path-1299"><rect x="-14.22" y="28.24" width="1.72" height="1.72" transform="translate(-24.49 -0.92) rotate(-45)" style="fill:none"/></clipPath><clipPath id="clip-path-1307"><rect x="-14.22" y="25.81" width="1.72" height="1.72" transform="translate(-22.77 -1.64) rotate(-45)" style="fill:none"/></clipPath><clipPath id="clip-path-1359"><rect x="-19.09" y="13.64" width="1.72" height="1.72" transform="translate(-15.59 -8.64) rotate(-45)" style="fill:none"/></clipPath><clipPath id="clip-path-1445"><rect x="-29.43" y="24.34" width="1.72" height="3.44" transform="translate(-26.8 -12.57) rotate(-45)" style="fill:none"/></clipPath><clipPath id="clip-path-1447"><rect x="-16.05" y="20.69" width="1.72" height="3.44" transform="translate(-20.3 -4.17) rotate(-45)" style="fill:none"/></clipPath><clipPath id="clip-path-1503"><rect x="-27.86" y="28.85" width="3.44" height="1.72" transform="translate(-28.67 -9.78) rotate(-45)" style="fill:none"/></clipPath><clipPath id="clip-path-1507"><rect x="-27" y="26.78" width="1.72" height="3.44" transform="translate(-27.81 -10.14) rotate(-45)" style="fill:none"/></clipPath><clipPath id="clip-path-1525"><rect x="-18.12" y="31.29" width="3.44" height="1.72" transform="translate(-27.54 -2.18) rotate(-45)" style="fill:none"/></clipPath><clipPath id="clip-path-1547"><rect x="-68.02" y="-34.71" width="344.17" height="252.97" transform="translate(-34.41 100.46) rotate(-45)" style="fill:none"/></clipPath><clipPath id="clip-path-1548"><polygon points="86.51 -140.14 -82.92 232.26 120.32 324.73 289.75 -47.68 86.51 -140.14" style="fill:none"/></clipPath><clipPath id="clip-path-1550"><rect x="12.01" y="150.49" width="254.69" height="60.23" transform="translate(-86.89 151.43) rotate(-45)" style="fill:none"/></clipPath><clipPath id="clip-path-1553"><rect x="37.84" y="190.48" width="223.71" height="44.74" transform="translate(-106.66 168.19) rotate(-45)" style="fill:none"/></clipPath><clipPath id="clip-path-1556"><rect x="6.52" y="145.11" width="234.04" height="63.67" transform="translate(-88.94 139.18) rotate(-45)" style="fill:none"/></clipPath><clipPath id="clip-path-1559"><rect x="21.12" y="177.05" width="234.04" height="53.35" transform="translate(-103.59 157.34) rotate(-45)" style="fill:none"/></clipPath><clipPath id="clip-path-1562"><rect x="-5.86" y="137.31" width="227.15" height="67.11" transform="translate(-89.27 126.21) rotate(-45)" style="fill:none"/></clipPath><clipPath id="clip-path-1565"><rect x="67.62" y="-94.79" width="12.05" height="27.53" transform="translate(78.86 28.34) rotate(-45)" style="fill:none"/></clipPath><clipPath id="clip-path-1567"><rect x="46.79" y="1.7" width="17.21" height="29.25" transform="translate(4.68 43.95) rotate(-45)" style="fill:none"/></clipPath><clipPath id="clip-path-1570"><rect x="84.66" y="6.72" width="12.05" height="24.09" transform="translate(13.29 69.62) rotate(-45)" style="fill:none"/></clipPath><clipPath id="clip-path-1573"><rect x="148.79" y="-28.72" width="10.33" height="29.25" transform="translate(55.06 104.73) rotate(-45)" style="fill:none"/></clipPath><clipPath id="clip-path-1575"><rect x="211.82" y="-51.23" width="12.05" height="29.25" transform="translate(89.69 143.31) rotate(-45)" style="fill:none"/></clipPath><clipPath id="clip-path-1577"><rect x="143.57" y="2.35" width="8.6" height="20.65" transform="translate(34.35 108.27) rotate(-45)" style="fill:none"/></clipPath><clipPath id="clip-path-1580"><rect x="163.75" y="-57.06" width="12.05" height="27.53" transform="translate(80.34 107.37) rotate(-45)" style="fill:none"/></clipPath><clipPath id="clip-path-1582"><rect x="98.04" y="-90.42" width="12.05" height="30.98" transform="translate(83.47 51.64) rotate(-45)" style="fill:none"/></clipPath><clipPath id="clip-path-1584"><rect x="175.31" y="-70.7" width="12.05" height="29.25" transform="translate(92.76 111.8) rotate(-45)" style="fill:none"/></clipPath><clipPath id="clip-path-1586"><rect x="88.56" y="-16.51" width="10.33" height="20.65" transform="translate(31.82 64.46) rotate(-45)" style="fill:none"/></clipPath><clipPath id="clip-path-1588"><rect x="177.74" y="-41.5" width="12.05" height="29.25" transform="translate(72.82 122.07) rotate(-45)" style="fill:none"/></clipPath><clipPath id="clip-path-1590"><rect x="100.73" y="-45" width="10.33" height="24.09" transform="translate(54.32 65.22) rotate(-45)" style="fill:none"/></clipPath><clipPath id="clip-path-1592"><rect x="180.68" y="21.57" width="8.6" height="22.37" transform="translate(31.02 140.4) rotate(-45)" style="fill:none"/></clipPath><clipPath id="clip-path-1595"><rect x="146.36" y="29.98" width="10.33" height="18.93" transform="translate(16.49 118.7) rotate(-45)" style="fill:none"/></clipPath><clipPath id="clip-path-1598"><rect x="57.78" y="-9.56" width="8.6" height="18.93" transform="translate(18.25 43.87) rotate(-45)" style="fill:none"/></clipPath><clipPath id="clip-path-1601"><rect x="140.63" y="-85.05" width="12.05" height="27.53" transform="translate(93.36 82.82) rotate(-45)" style="fill:none"/></clipPath><clipPath id="clip-path-1603"><rect x="212.32" y="3.82" width="8.6" height="18.93" transform="translate(54.05 157.07) rotate(-45)" style="fill:none"/></clipPath><clipPath id="clip-path-1606"><rect x="119.23" y="26.69" width="8.6" height="20.65" transform="translate(10.01 98.19) rotate(-45)" style="fill:none"/></clipPath><clipPath id="clip-path-1609"><rect x="102.91" y="-98.44" width="12.05" height="27.53" transform="translate(91.78 52.23) rotate(-45)" style="fill:none"/></clipPath><clipPath id="clip-path-1611"><rect x="117.76" y="-25.53" width="10.33" height="24.09" transform="translate(45.54 82.97) rotate(-45)" style="fill:none"/></clipPath><clipPath id="clip-path-1613"><rect x="59.1" y="-51.19" width="12.05" height="20.65" transform="translate(47.97 34.08) rotate(-45)" style="fill:none"/></clipPath><clipPath id="clip-path-1615"><rect x="80.65" y="-37.45" width="10.33" height="22.37" transform="translate(43.7 52.99) rotate(-45)" style="fill:none"/></clipPath><clipPath id="clip-path-1617"><rect x="141.49" y="-48.9" width="10.33" height="25.81" transform="translate(68.41 93.16) rotate(-45)" style="fill:none"/></clipPath><clipPath id="clip-path-1619"><rect x="208.06" y="-22.49" width="8.6" height="24.09" transform="translate(69.58 147.1) rotate(-45)" style="fill:none"/></clipPath><clipPath id="clip-path-1621"><rect x="78.57" y="27.4" width="12.05" height="24.09" transform="translate(-3.12 71.37) rotate(-45)" style="fill:none"/></clipPath><clipPath id="clip-path-1624"><rect x="114.97" y="6.26" width="8.6" height="18.93" transform="translate(23.82 88.94) rotate(-45)" style="fill:none"/></clipPath><clipPath id="clip-path-1627"><rect x="130.43" y="-107.06" width="6.88" height="24.09" transform="translate(106.4 66.84) rotate(-45)" style="fill:none"/></clipPath><clipPath id="clip-path-1629"><rect x="173.63" y="-5.3" width="6.88" height="18.93" transform="translate(48.92 126.43) rotate(-45)" style="fill:none"/></clipPath><clipPath id="clip-path-1632"><rect x="75.43" y="-68.22" width="8.6" height="20.65" transform="translate(64.29 39.42) rotate(-45)" style="fill:none"/></clipPath><clipPath id="clip-path-1634"><rect x="76.39" y="-109.7" width="10.33" height="17.21" transform="translate(95.37 28.06) rotate(-45)" style="fill:none"/></clipPath><clipPath id="clip-path-1636"><rect x="129.32" y="-71.52" width="10.33" height="22.37" transform="translate(82.05 77.42) rotate(-45)" style="fill:none"/></clipPath><clipPath id="clip-path-1638"><rect x="107.92" y="-61.99" width="6.88" height="15.49" transform="translate(70.98 62.86) rotate(-45)" style="fill:none"/></clipPath><clipPath id="clip-path-1640"><rect x="219.26" y="-26.96" width="6.88" height="17.21" transform="translate(78.21 152.1) rotate(-45)" style="fill:none"/></clipPath><clipPath id="clip-path-1642"><rect x="128.86" y="-38.98" width="5.16" height="12.05" transform="translate(61.8 83.29) rotate(-45)" style="fill:none"/></clipPath><clipPath id="clip-path-1644"><rect x="216.26" y="1306.92" width="5.25" height="3.29" style="fill:none"/></clipPath><clipPath id="clip-path-1645"><polygon points="-11.77 1126.11 417.45 1328.1 380.79 1450.43 -48.45 1248.46 -11.77 1126.11" style="fill:none"/></clipPath><clipPath id="clip-path-1646"><polygon points="-14.99 1124.6 421.6 1330.05 384.94 1452.38 -51.66 1246.94 -14.99 1124.6" style="fill:none"/></clipPath><clipPath id="clip-path-1647"><rect x="221.51" y="1306.92" width="18.37" height="6.57" style="fill:none"/></clipPath><clipPath id="clip-path-1650"><rect x="334.33" y="1402.26" width="52.48" height="23.01" style="fill:none"/></clipPath><clipPath id="clip-path-1652"><rect x="-33" y="1182" width="432.93" height="233.41" style="fill:none"/></clipPath><clipPath id="clip-path-1655"><rect x="197.89" y="1306.92" width="18.37" height="3.29" style="fill:none"/></clipPath><clipPath id="clip-path-1658"><rect x="1044.82" y="1054" width="256.08" height="343.6" style="fill:none"/></clipPath><clipPath id="clip-path-1659"><rect x="1073.08" y="1051.8" width="243.11" height="354.94" transform="translate(-413.39 635.55) rotate(-25.55)" style="fill:none"/></clipPath></defs><title>Artboard 1</title><g style="clip-path:url(#clip-path)"><g style="clip-path:url(#clip-path-2)"><g style="clip-path:url(#clip-path-2)"><path d="M1195.86,165.1c-.67.6-1.16,1.05-1.73,1.54,6.81,3.55,13.53,7,20.2,10.53a117.32,117.32,0,0,1,16.81,10.68,36.42,36.42,0,0,1,5.61,5.2c2.43,2.88,4.57,8.37,1.21,11.92a3.59,3.59,0,0,0-.87,1.6c-.8,3.47-3.28,5.22-6.65,6.48a13.89,13.89,0,0,0,4,2.44c5.1,2.32,9.31,5.89,13.63,9.34a6.6,6.6,0,0,1,1.83,3.09c.47,1.21.61,2.14-.64,2.86,1,2.29-1.39,3.6-1.61,5.56-.17,1.52-1.26,2.49-2.34,3.43a18.63,18.63,0,0,1-9.36,4.31,50.56,50.56,0,0,1-9.44,1c-1,0-2.08.23-2.75-.9-.13-.19-.68-.39-.77-.31-2.12,1.93-4.43.14-6.64.3s-4.61-.72-6.93-1.19c-6.62-1.32-13.11-3.19-19.59-5.07a280.37,280.37,0,0,1-31.94-11.65c-8.83-3.78-17.39-8.08-26-12.34-7.78-3.86-15.33-8.11-22.78-12.54-4.39-2.6-8.85-5.17-13-8.11-3.77-2.71-7.5-5.59-11.14-8.53-2.66-2.14-4.77-4.91-7.61-6.74-3.66-2.36-6.17-6-9.87-8.34-2.63-1.71-4.91-4.06-7.71-5.68-2-1.14-3.12-3.2-4.76-4.74-2.91-2.73-7-3.92-9.35-7.35-.3-.44-1-.63-1.6-.83a12.37,12.37,0,0,1-4.45-3.14,85,85,0,0,0-6.64-5.41,72.07,72.07,0,0,1-7.83-6.81c-3.5-3.74-3.93-7.87-2.61-12.48.22-.79.49-1.57.73-2.35a2.46,2.46,0,0,0-.58-3c-1.46-1.39-.8-2.73,1.25-3.08a8.79,8.79,0,0,1,5.06.92c4.88,2.16,9.37,5,14,7.6l8.61,4.8a4.83,4.83,0,0,0-2.15-4.13,128.46,128.46,0,0,1-10.81-10.83,15.15,15.15,0,0,1-2.88-5c-.67-1.73-.89-3.15,1-4.52,1.63-1.13,1.88-3.32,2.17-5.23.18-1.13.22-2.25,1.41-2.87.62-.33.7-.92.7-1.58a3.17,3.17,0,0,1,.2-1.79c1.43-2,.25-4,.2-6.1-.09-3.2-1.94-5.44-3.32-8a5.53,5.53,0,0,1-.72-2c-.23-1.89,0-2,1.82-2.32a10.91,10.91,0,0,1,7.54,1.54c10.6,5.78,21.65,10.65,32.75,15.39,2.35,1,4.68,2,7,3a7.22,7.22,0,0,0,1.75.48c.22,0,.55-.25.72-.48s0-.58-.22-.78a12.37,12.37,0,0,0-4.43-2.68,12.8,12.8,0,0,1-6.48-3.88,14.37,14.37,0,0,0-2.89-2.23c-1.15-.77-2.77-1-3-2.78-2.66-.35-3.5-3.29-5.78-4.11-2.06-.73-3.47-2.3-5.18-3.43-3.91-2.61-7-6.18-11.06-8.6-3.66-2.19-6.85-5.12-10.58-7.26-.87-.49-1.68-1.12-2.57-1.62a24.64,24.64,0,0,1-7.58-5.62,2,2,0,0,0-.64-.66c-5.47-2.68-9.76-7-14.67-10.47-4.35-3.07-8.7-6.21-13-9.39-5.57-4.13-10.88-8.62-16.9-12.16a20.54,20.54,0,0,1-7.46-7.13c-.15-.27-.25-.69-.49-.76-3.38-1.21-4-4.73-5.74-7.22A8.76,8.76,0,0,1,969-5a2.09,2.09,0,0,1,2.35-1.75,19.8,19.8,0,0,1,7.44,1.61,22,22,0,0,1,4.13,2c7.18,4.53,14.66,8.55,21.68,13.36,3,2.07,6.27,3.83,9.41,5.73,8.48,5.14,16.91,10.37,25.45,15.4q13.23,7.78,26.85,14.88c6.54,3.4,13,6.9,19.54,10.31q14.4,7.55,28.86,15,21.11,11,42.36,21.65c9.23,4.63,18.68,8.8,28.09,13.09,12.11,5.52,24.51,10.35,36.91,15.14,11.74,4.54,23.56,8.84,35.42,13.07,12.62,4.52,25.42,8.54,37.76,13.79,3,1.27,5.59,3.35,8.37,5.07a2.3,2.3,0,0,1,.63.65c1.8,2.85,2,3.35,3.94,4.38,1.29.68,2.09,1.37,2,2.9A2.42,2.42,0,0,0,1311,163c.35.39.76,1,.51,1.37-1.38,2.3-.31,5.23-2.17,7.51a9,9,0,0,0-1.85,4.48,6.16,6.16,0,0,1-2.39,3.78c-3.45,3.16-7.92,3.92-12.11,5.33-1.57.52-3.28,0-4.88-.24-7.18-1-14.35-2.18-21.52-3.37s-14.33-2.32-21.44-3.75c-2.8-.55-5.69-.78-8.18-2.37-.58-.37-1.17-.12-1.78-.11-1.73,0-3.74.61-4.44-1.91a1.21,1.21,0,0,0-1.06-.4c-2.33,1.37-4.57,0-6.83-.17-2-.18-3.89-1.29-6-1.35-1.54,0-1.44-2.16-3.07-2.24-1.34-.06-2.49.89-3.89.45a25.69,25.69,0,0,1-5.3-2.21c-.63-.38-1.24-.81-2-.49C1199.88,168.39,1197.83,167.13,1195.86,165.1Z" style="fill:#a8ca5a"/></g></g></g><g style="clip-path:url(#clip-path-4)"><g style="clip-path:url(#clip-path-2)"><g style="clip-path:url(#clip-path-2)"><path d="M1303.74,236.28c-3,.48-5.12-.68-7.26-1.54-4.85-2-9.89-3.31-14.88-4.79-13.48-4-27.08-7.5-40.57-11.44-15.89-4.64-31.62-9.77-47.33-15-10-3.31-20-6.45-30.25-9-11.19-2.81-22.32-6-33.81-7.51-10.88-1.4-21.7-3.14-32.68-3.79-3.45-.2-6.88-.62-10.33-.94-4.39-.4-8.81-.2-13.21-.47s-8.81,0-13.2-.58c-2.24-.27-4.55-.23-6.78-.68-.63-.13-1.35,0-1.89-.73.5-.87,1.38-.94,2.23-1,3.22-.22,6.44-.52,9.67-.6,4.93-.13,9.85-.43,14.77-.24,8.16.31,16.32.5,24.47.84,9,.39,18,1.18,27,2.45a212.13,212.13,0,0,1,27.23,5.5c6.43,1.79,12.89,3.52,19.26,5.45,8.23,2.5,16.43,5.13,24.6,7.79,5.59,1.82,11.13,3.84,16.72,5.69s11.47,3.68,17.21,5.5c4.49,1.42,9,2.84,13.49,4.21,3.1.92,6.21,1.79,9.35,2.58,4.78,1.21,9.39,2.93,14.09,4.37a154.6,154.6,0,0,1,14.87,5.58c4.74,2,9.58,3.77,14.22,6C1301.85,234.47,1302.49,235.43,1303.74,236.28Z" style="fill:#08bfbe"/></g></g></g><g style="clip-path:url(#clip-path-7)"><g style="clip-path:url(#clip-path-2)"><g style="clip-path:url(#clip-path-2)"><path d="M1303.82,258a9.15,9.15,0,0,1-5.42-.07c-2.36-.56-4.69-1.25-7.05-1.85-5.35-1.36-10.74-2.55-16-4.08-4.38-1.27-8.73-2.65-13.1-3.94-6.2-1.81-12.43-3.49-18.73-5-9.1-2.13-18.19-4.36-27.27-6.58-7.72-1.88-15.36-4-23.14-5.59s-15.87-3.12-23.86-4.47c-8.49-1.43-17-2.88-25.51-4.06-6.56-.92-13.13-1.65-19.74-2.29s-13.33-.62-20-1.34c-4.22-.46-8.48-.4-12.69-1-1.74-.25-3.5-.42-5.24-.61a6.12,6.12,0,0,1-2.12-.64.87.87,0,0,1-.57-1.05c.12-.47.33-.82.84-.87a13.29,13.29,0,0,1,1.53-.18q9.26.33,18.53.68c4.91.18,9.84.34,14.75.59,5.26.28,10.53.64,15.8,1a231.29,231.29,0,0,1,25.58,3.37c6.88,1.24,13.79,2.37,20.65,3.72,4.32.86,8.63,1.77,13,2.56,5.43,1,10.73,2.49,16.09,3.7,3.23.73,6.42,1.67,9.67,2.3,7.21,1.42,14.33,3.27,21.48,5,3.93.94,7.79,2.12,11.67,3.26q7.95,2.32,15.84,4.76c5.62,1.75,11.2,3.57,16.76,5.51,3.94,1.39,8,2.48,12,3.74A14.7,14.7,0,0,1,1303.82,258Z" style="fill:#08bfbe"/></g></g></g><g style="clip-path:url(#clip-path-10)"><g style="clip-path:url(#clip-path-2)"><g style="clip-path:url(#clip-path-2)"><path d="M1070.46,162.67a19,19,0,0,1,6.57-.78c4.12,0,8.24.27,12.35.44,4,.16,7.95.2,11.9.54,4.9.41,9.82.61,14.71,1.27,4,.55,8,.87,12,1.66,6.63,1.33,13.21,2.91,19.83,4.35,9,2,17.84,4.51,26.69,7,7.22,2.05,14.25,4.72,21.33,7.16,7.78,2.67,15.38,5.86,23.19,8.46,7.19,2.4,14.37,4.76,21.51,7.26,5.48,1.92,11,3.6,16.49,5.61,4.18,1.53,8.52,2.75,12.79,4.09,4.71,1.48,9.29,3.32,13.93,5q4.56,1.67,9.16,3.22a64.49,64.49,0,0,1,7.45,3.32,19.81,19.81,0,0,1,2.4,1.73,9.8,9.8,0,0,1-4.76-.39c-5.21-1.34-10.29-3.09-15.44-4.6-7.71-2.26-15.56-4-23.2-6.43-4.2-1.34-8.38-2.76-12.57-4.17-4.94-1.68-9.86-3.44-14.82-5.06s-9.56-3.42-14.36-5.11c-11.18-3.94-22.13-8.46-33.26-12.52-5.4-2-10.93-3.51-16.46-5.06-10.78-3-21.59-5.85-32.57-8-3.76-.75-7.55-1.34-11.24-2.33a91,91,0,0,0-13.7-2.14c-2.28-.26-4.55-1.13-6.81-1.07s-4.66-.3-7-.46c-.65,0-1.31.13-1.82-.5a.69.69,0,0,0-.82-.15c-2,.8-4,.32-6-.12a2.77,2.77,0,0,0-.85-.09c-4.3.38-8.51-.52-12.77-.76A7.39,7.39,0,0,1,1070.46,162.67Z" style="fill:#08bfbe"/></g></g></g><g style="clip-path:url(#clip-path-13)"><g style="clip-path:url(#clip-path-2)"><g style="clip-path:url(#clip-path-2)"><path d="M1079,198a59.07,59.07,0,0,1,9.1-.81c4.33-.14,8.66-.42,13-.21,4,.17,7.9.28,11.85.54,4.25.26,8.49.65,12.74,1.06,5.79.57,11.52,1.53,17.25,2.53,6.88,1.21,13.73,2.57,20.58,3.9s13.91,3.11,20.81,4.8c8,2,16,4,24,6,6.64,1.65,13.29,3.21,19.92,4.88,8.62,2.17,17.16,4.63,25.74,6.93,9.25,2.48,18.31,5.54,27.44,8.37,8.07,2.51,16,5.32,24,8a46.29,46.29,0,0,1,5,2.22c.42.19,1.08.45.8,1.11s-.84.52-1.36.4c-2.79-.58-5.61-1.1-8.38-1.8-12-3-23.81-6.67-35.72-10-13.32-3.74-26.62-7.52-40-11-8.54-2.24-17.18-4.11-25.7-6.43q-15.21-4.12-30.47-8.16c-2.42-.63-4.88-1.12-7.32-1.68a4.66,4.66,0,0,1-1.67-.5c-1.1-.85-2.39-.48-3.56-.73-2.3-.49-4.6-1-6.89-1.54-5.59-1.35-11.28-2.05-16.89-3.24-5.41-1.14-10.9-1.67-16.37-2.46a46.86,46.86,0,0,0-8.06-.53,32.39,32.39,0,0,1-6.81-.54c-2.24-.41-4.48-.07-6.73-.28a25.57,25.57,0,0,1-3.68-.25c-1.89-.44-3.8,0-5.71,0C1083.66,198.49,1081.31,198.81,1079,198Z" style="fill:#08bfbe"/></g></g></g><g style="clip-path:url(#clip-path-16)"><g style="clip-path:url(#clip-path-2)"><g style="clip-path:url(#clip-path-2)"><path d="M1306.14,209.65a2.49,2.49,0,0,1-1.7-.13c-5.17-1.39-10.25-3.09-15.44-4.37-4.57-1.12-9.09-2.45-13.61-3.74-7.14-2-14.38-3.73-21.56-5.63-6.1-1.62-12.19-3.33-18.26-5.08-3.8-1.11-7.57-2.32-11.4-3.37-5.38-1.47-10.66-3.32-16-4.9-4.45-1.31-8.81-2.85-13.2-4.3-6.49-2.16-12.86-4.67-19.26-7.07-4.2-1.57-8.43-3.12-12.7-4.46-5.51-1.74-11.06-3.42-16.7-4.8-4.72-1.16-9.48-2.07-14.2-3.16-7.15-1.68-14.35-3.16-21.47-5-5.28-1.35-10.59-2.55-15.85-4-3.69-1-7.32-2.17-11-3.31a18.71,18.71,0,0,1-2-.91c-.4-.19-.9-.31-.78-.88s.66-.59,1.07-.58a38.16,38.16,0,0,1,8.13.39c9.84,2.13,19.7,4.18,29.47,6.61,5.43,1.35,10.91,2.43,16.34,3.78,4.35,1.07,8.66,2.28,12.94,3.59,5.75,1.77,11.33,4.07,17,5.9,7.92,2.56,15.49,6,23.33,8.72,6.18,2.15,12.41,4.19,18.62,6.24,7.89,2.59,15.89,4.88,23.85,7.3,6.61,2,13.32,3.67,20,5.54s13.46,3.71,20.28,5.23q9.17,2,18.07,4.95c4.18,1.36,8.22,3.17,12.32,4.81,1.15.47,2.45.58,3.47,1.38C1306.43,208.75,1306.7,209.12,1306.14,209.65Z" style="fill:#08bfbe"/></g></g></g><g style="clip-path:url(#clip-path-21)"><g style="clip-path:url(#clip-path-2)"><g style="clip-path:url(#clip-path-2)"><path d="M1114.39,45.13c.81-3.3,1.26-6.62,2.73-9.67,2.54-5.24,5-10.52,7.49-15.77a10.9,10.9,0,0,1,.7-1.36c.45-.69,1-1.47,1.9-1.32s.63,1.16,1,1.71c1.87,3,.91,5.64-.8,8.14-3,4.39-5.29,9.18-8,13.72A11.41,11.41,0,0,1,1114.39,45.13Z" style="fill:#f9da82"/></g></g></g><g style="clip-path:url(#clip-path-24)"><g style="clip-path:url(#clip-path-2)"><g style="clip-path:url(#clip-path-2)"><path d="M1093.31,69a19.33,19.33,0,0,1,.15-7.31,93,93,0,0,1,3.73-12,6.29,6.29,0,0,1,.69-1.37c.64-.87,1.08-2.26,2.35-2.18s.73,1.68,1.25,2.46c1.76,2.57.87,5.07-.15,7.57-1.19,2.92-2,6-3.67,8.74C1096.7,66.63,1095.74,68.36,1093.31,69Z" style="fill:#f9da82"/></g></g></g><g style="clip-path:url(#clip-path-27)"><g style="clip-path:url(#clip-path-2)"><g style="clip-path:url(#clip-path-2)"><path d="M1034.13,66c1.25,3,1,6,.43,8.88a20.56,20.56,0,0,1-2.32,6,13.55,13.55,0,0,0-1.76,4.68c-.43,2.89-2.93,4.63-5.17,7.27-.09-8.58,3.2-15.63,5.63-22.85C1031.43,68.47,1032,66.58,1034.13,66Z" style="fill:#f9da82"/></g></g></g><g style="clip-path:url(#clip-path-30)"><g style="clip-path:url(#clip-path-2)"><g style="clip-path:url(#clip-path-2)"><path d="M964.2,122c-.76-3.9.27-7.45,1.11-11,1-4.27,2.42-8.43,3.71-12.64.38-1.23.76-3,2.17-3s.95,2,1.76,2.86c.36.4.69,1,.38,1.38-1.52,1.87-.8,4.28-1.69,6.36A44.11,44.11,0,0,0,969,114.4C968.36,117.46,966.08,119.62,964.2,122Z" style="fill:#f9da82"/></g></g></g><g style="clip-path:url(#clip-path-33)"><g style="clip-path:url(#clip-path-2)"><g style="clip-path:url(#clip-path-2)"><path d="M1055.6,97.29c-.37,1-.73,1.91-1.08,2.87a4.62,4.62,0,0,1-2,2.29c-1.67,1-3,.4-3.2-1.5-.6-5,.78-9.72,1.94-14.47a3.3,3.3,0,0,1,.58-1c.57-.84,1.11-1.93,2.3-1.71s.69,1.47.9,2.28.17,1.86.68,2.31c2.5,2.21,1.41,4.6.61,7-.22.68-.49,1.34-.75,2Z" style="fill:#f9da82"/></g></g></g><g style="clip-path:url(#clip-path-36)"><g style="clip-path:url(#clip-path-2)"><g style="clip-path:url(#clip-path-2)"><path d="M993.84,81.78a25.08,25.08,0,0,1,.83-9.21c1-3.53,1.83-7.09,2.76-10.63.36-1.38.57-2.85,1.66-3.87.67-.64,1.51-.86,1.81.4a8.94,8.94,0,0,0,1.65,4.21c.52.6.09,1.38-.14,2-1.4,4.14-2.77,8.3-4.23,12.44A7.26,7.26,0,0,1,993.84,81.78Z" style="fill:#f9da82"/></g></g></g><g style="clip-path:url(#clip-path-39)"><g style="clip-path:url(#clip-path-2)"><g style="clip-path:url(#clip-path-2)"><path d="M1016.49,15.46c-.46-2.52.29-4.47.77-6.38A88.72,88.72,0,0,1,1019.88,0c1.23-3.34,2.11-6.82,3.16-10.22a14.92,14.92,0,0,1,.74-2,1.22,1.22,0,0,1,1.14-.86,1,1,0,0,1,.92,1,8.37,8.37,0,0,0,1.08,3.15,3.44,3.44,0,0,1-.09,3C1024,1.28,1021.47,8.69,1016.49,15.46Z" style="fill:#f9da82"/></g></g></g><g style="clip-path:url(#clip-path-42)"><g style="clip-path:url(#clip-path-2)"><g style="clip-path:url(#clip-path-2)"><path d="M976.75,82.18a33.87,33.87,0,0,1,.78-10,130.93,130.93,0,0,1,4.1-14.12,13.16,13.16,0,0,1,1.19-2.48,1.34,1.34,0,0,1,1.55-.7c.56.16.54.76.73,1.23a7.75,7.75,0,0,1-.17,6.17c-1.91,4.69-3.42,9.55-5.41,14.2C978.71,78.38,977.55,80.16,976.75,82.18Z" style="fill:#f9da82"/></g></g></g><g style="clip-path:url(#clip-path-45)"><g style="clip-path:url(#clip-path-2)"><g style="clip-path:url(#clip-path-2)"><path d="M1075,50.86a21,21,0,0,1,0-6.89c.57-2.9,1.31-5.76,2-8.62a5.16,5.16,0,0,1,1.37-2.67c1.14-1,1.79-.82,2.24.73.22.77.26,1.78.78,2.27,1.81,1.77,1.31,3.67.62,5.64-.41,1.15-.93,2.26-1.36,3.39A10.13,10.13,0,0,1,1075,50.86Z" style="fill:#f9da82"/></g></g></g><g style="clip-path:url(#clip-path-48)"><g style="clip-path:url(#clip-path-2)"><g style="clip-path:url(#clip-path-2)"><path d="M995.51,104.59c.41-5.3,1.83-9.79,3-14.33.7-2.76,1.6-5.46,2.06-8.28a9.35,9.35,0,0,1,.47-1.78c.39-1.06.87-2.49,2-2.44,1.45.06.93,1.75,1.29,2.71a8.29,8.29,0,0,1-.4,6.22c-1.77,4.5-3.42,9-5.13,13.57C998.2,101.83,997,102.93,995.51,104.59Z" style="fill:#f9da82"/></g></g></g><g style="clip-path:url(#clip-path-51)"><g style="clip-path:url(#clip-path-2)"><g style="clip-path:url(#clip-path-2)"><path d="M1053.41,32c-1.13,3.19-3.12,5.93-4.62,8.92a3,3,0,0,1-1,1.12c-.79.53-1.4.37-1.36-.72a26,26,0,0,1,.61-5.76c1.06-3.82,2.09-7.66,3.14-11.49a7.76,7.76,0,0,1,.65-1.7,1.62,1.62,0,0,1,1.49-.91c.78,0,1,.66,1.12,1.26a14.17,14.17,0,0,0,1.16,3.47,3.49,3.49,0,0,1-.1,3C1054.1,30,1053.77,31,1053.41,32Z" style="fill:#f9da82"/></g></g></g><g style="clip-path:url(#clip-path-54)"><g style="clip-path:url(#clip-path-2)"><g style="clip-path:url(#clip-path-2)"><path d="M1038.19,144c-.92-.33-1-1.21-1-2a21.06,21.06,0,0,1,.25-5.19c.63-2.9,1-5.84,1.61-8.75a16.48,16.48,0,0,1,.8-2.95c.37-.94.9-2.06,2.07-2s.79,1.44,1.24,2.15c1.83,2.9,1.39,5.56,0,8.59-.92,2-1.17,4.15-2.9,5.87C1039.18,140.77,1039.94,143,1038.19,144Z" style="fill:#f9da82"/></g></g></g><g style="clip-path:url(#clip-path-57)"><g style="clip-path:url(#clip-path-2)"><g style="clip-path:url(#clip-path-2)"><path d="M1072.59,117.79a13.07,13.07,0,0,1-2.06,4.1,2.75,2.75,0,0,1-2.93,1.19c-1.41-.3-1.62-1.45-1.71-2.58-.32-3.73.6-7.29,1.67-10.82a4,4,0,0,1,1.11-1.81c1.3-1.18,2.19-1,2.58.66s.61,3.41,2.11,4.61c.53.42.38,1.13.19,1.73C1073.24,115.84,1072.91,116.81,1072.59,117.79Z" style="fill:#f9da82"/></g></g></g><g style="clip-path:url(#clip-path-60)"><g style="clip-path:url(#clip-path-2)"><g style="clip-path:url(#clip-path-2)"><path d="M1107.71,25.23a23.56,23.56,0,0,1-2.64,5.27,6.16,6.16,0,0,1-1.72,1.73c-1.77,1.12-2.61.7-2.66-1.43a22.27,22.27,0,0,1,2.61-10.6c.62-1.26,1-2.71,2.1-3.7s1.78-.81,2.39.67C1108.94,20,1109.57,22.84,1107.71,25.23Z" style="fill:#f9da82"/></g></g></g><g style="clip-path:url(#clip-path-63)"><g style="clip-path:url(#clip-path-2)"><g style="clip-path:url(#clip-path-2)"><path d="M989.89,46.22c-1-1.8-.49-3.5.05-5.1,1.88-5.7,3.89-11.37,5.9-17a21.52,21.52,0,0,1,1.46-3,1.19,1.19,0,0,1,1.19-.79c.67.09.67.71.72,1.18a11.37,11.37,0,0,1-.56,5.43c-2,5.32-4.14,10.6-6.13,15.94C992,44.24,990.57,44.85,989.89,46.22Z" style="fill:#f9da82"/></g></g></g><g style="clip-path:url(#clip-path-66)"><g style="clip-path:url(#clip-path-2)"><g style="clip-path:url(#clip-path-2)"><path d="M1003.24,151.65c-1.48-3.28-1-6.47-.93-9.57,0-1.82.55-3.62.75-5.44a4.92,4.92,0,0,1,1-2.18,1.85,1.85,0,0,1,1.8-.94c.94.15.94,1,1,1.66,0,1.57.28,3,1.69,4.06.88.64.59,1.62.32,2.54-.61,2-1.24,4.08-1.78,6.14S1005,150.56,1003.24,151.65Z" style="fill:#f9da82"/></g></g></g><g style="clip-path:url(#clip-path-69)"><g style="clip-path:url(#clip-path-2)"><g style="clip-path:url(#clip-path-2)"><path d="M1085.56,102.82c-1.08-5.74,0-10.93,2.14-16a3.78,3.78,0,0,1,.84-1.24c.87-.86,1.63-.67,2.13.42,2.17,4.8,1.47,9.38-1,13.87C1088.86,101.43,1087.29,101.93,1085.56,102.82Z" style="fill:#f9da82"/></g></g></g><g style="clip-path:url(#clip-path-72)"><g style="clip-path:url(#clip-path-2)"><g style="clip-path:url(#clip-path-2)"><path d="M1007.28,10.16a18.47,18.47,0,0,1,.83-6.35c1.83-5.74,3.7-11.47,5.56-17.2a7.93,7.93,0,0,1,.47-1.13c.26-.58.65-1.11,1.36-1s.57.72.79,1.17c1.19,2.51,1.35,4.85-.79,7a3.16,3.16,0,0,0-.81,1.62c-.74,4.28-3.31,7.85-4.59,11.93A7.43,7.43,0,0,1,1007.28,10.16Z" style="fill:#f9da82"/></g></g></g><g style="clip-path:url(#clip-path-75)"><g style="clip-path:url(#clip-path-2)"><g style="clip-path:url(#clip-path-2)"><path d="M1055.07,47.12c1.29,3.84,2.33,7.08-.07,11-1.74,2.87-3.13,6.07-5,9a6.52,6.52,0,0,1-.71,1,1,1,0,0,1-1.07.44c-.67-.2-.48-.73-.46-1.24a17.48,17.48,0,0,1,1.34-5.33,83.51,83.51,0,0,0,3.23-11.18A4.88,4.88,0,0,1,1055.07,47.12Z" style="fill:#f9da82"/></g></g></g><g style="clip-path:url(#clip-path-78)"><g style="clip-path:url(#clip-path-2)"><g style="clip-path:url(#clip-path-2)"><path d="M1068.64,7.63a22.5,22.5,0,0,1,1.76-8.3,48.76,48.76,0,0,1,4.62-9.67,8,8,0,0,1,1.37-1.63,1,1,0,0,1,1.58.23c.62,1.25,1.32,2.91.74,4-2.64,5-4.79,10.36-8.68,14.64A1.5,1.5,0,0,1,1068.64,7.63Z" style="fill:#f9da82"/></g></g></g><g style="clip-path:url(#clip-path-81)"><g style="clip-path:url(#clip-path-2)"><g style="clip-path:url(#clip-path-2)"><path d="M1065.92,32.13a17.5,17.5,0,0,1,.91-8,51.11,51.11,0,0,1,4.23-10.48,9.61,9.61,0,0,1,1.15-1.79c.51-.56,1.27-.5,1.42.25.46,2.29,1.78,4.45,0,7-1.58,2.34-2.51,5.11-3.71,7.7A18.37,18.37,0,0,1,1065.92,32.13Z" style="fill:#f9da82"/></g></g></g><g style="clip-path:url(#clip-path-84)"><g style="clip-path:url(#clip-path-2)"><g style="clip-path:url(#clip-path-2)"><path d="M1016.59,70.09a4.61,4.61,0,0,1-.26-4.14c1.76-5.6,2.29-11.55,4.79-17,.48-1,.76-2.09,2.11-2.47,1.65,3.9.26,7.58-.73,11.24-.28,1.06-2,1.38-1.92,2.9a28.29,28.29,0,0,1-.58,5C1019.75,67.87,1018.57,69.11,1016.59,70.09Z" style="fill:#f9da82"/></g></g></g><g style="clip-path:url(#clip-path-87)"><g style="clip-path:url(#clip-path-2)"><g style="clip-path:url(#clip-path-2)"><path d="M993.21,111.74a19.81,19.81,0,0,1,.11,10.93c-.76,3.24-2.14,6.35-2.32,9.72a3.42,3.42,0,0,1-.26,1.17,1.63,1.63,0,0,1-1.62,1.17c-1-.07-.84-1-1-1.64a2.23,2.23,0,0,1,.06-.92c1.71-6,1.74-12.29,3.27-18.32C991.74,112.94,991.91,112.1,993.21,111.74Z" style="fill:#f9da82"/></g></g></g><g style="clip-path:url(#clip-path-90)"><g style="clip-path:url(#clip-path-2)"><g style="clip-path:url(#clip-path-2)"><path d="M1120.59,56.17c1.62,2.85.33,5.44-.81,8-1.71,3.85-4.34,7.3-5.53,11.42-.36,1.28-1.4,2.23-1.67,3.57a.75.75,0,0,1-1,.49.83.83,0,0,1-.43-1c.44-1.68.87-3.38,1.42-5a130.39,130.39,0,0,1,6.46-15.88C1119.38,57,1119.69,56.39,1120.59,56.17Z" style="fill:#f9da82"/></g></g></g><g style="clip-path:url(#clip-path-93)"><g style="clip-path:url(#clip-path-2)"><g style="clip-path:url(#clip-path-2)"><path d="M1072.5,84.33a29.55,29.55,0,0,1,2.93-16.64,3.15,3.15,0,0,1,.77-.94c.67-.64,1.37-.66,1.6.33a10.74,10.74,0,0,1,.36,5.29c-.86,3.58-2.83,6.62-4,10A2.77,2.77,0,0,1,1072.5,84.33Z" style="fill:#f9da82"/></g></g></g><g style="clip-path:url(#clip-path-96)"><g style="clip-path:url(#clip-path-2)"><g style="clip-path:url(#clip-path-2)"><path d="M988.81-3.55a7.69,7.69,0,0,1,.57,6.82c-1.38,3.6-1.47,7.58-3.26,11.06a50.28,50.28,0,0,1-2.43,4.57A35,35,0,0,1,985,7.67C986.05,4.06,986.13.06,988.81-3.55Z" style="fill:#f9da82"/></g></g></g><g style="clip-path:url(#clip-path-99)"><g style="clip-path:url(#clip-path-2)"><g style="clip-path:url(#clip-path-2)"><path d="M1025.32,117.36c-1.42-5.32-.34-10.37,1.1-15.39a4,4,0,0,1,.34-.86c.35-.63.73-1.36,1.5-1.39,1,0,.92.94,1.15,1.55a6.69,6.69,0,0,1,.52,3.88A59.63,59.63,0,0,1,1025.32,117.36Z" style="fill:#f9da82"/></g></g></g><g style="clip-path:url(#clip-path-102)"><g style="clip-path:url(#clip-path-2)"><g style="clip-path:url(#clip-path-2)"><path d="M1053.93-13c2.13,3.42,1.28,6.5-.77,9.47-.34.5-1,1.15-.9,1.52.88,2.9-2.26,3.9-2.75,6.11a.6.6,0,0,1-.75.39c-.52-.12-.48-.49-.4-1a127.15,127.15,0,0,1,3.88-15.1A1.81,1.81,0,0,1,1053.93-13Z" style="fill:#f9da82"/></g></g></g><g style="clip-path:url(#clip-path-107)"><g style="clip-path:url(#clip-path-2)"><g style="clip-path:url(#clip-path-2)"><path d="M1006.42,43.68a3,3,0,0,1,.37-3c2.47-4.93,4.22-10.14,6.24-15.24a7.39,7.39,0,0,1,1.31-2.4c.27-.3.61-.6,1-.37a1.08,1.08,0,0,1,.49,1.05,1.44,1.44,0,0,1-.13.58c-3,5.65-4.53,12-7.82,17.46A16.73,16.73,0,0,1,1006.42,43.68Z" style="fill:#f9da82"/></g></g></g><g style="clip-path:url(#clip-path-110)"><g style="clip-path:url(#clip-path-2)"><g style="clip-path:url(#clip-path-2)"><path d="M1032.82,13.84c.69.51.74,1.44,1.25,2.05,1,1.27.68,2.44-.15,3.61a6.58,6.58,0,0,0-1.46,3.84c0,1.68-1.45,2.76-2.49,4.11C1029.06,24.4,1031,15.52,1032.82,13.84Z" style="fill:#f9da82"/></g></g></g><g style="clip-path:url(#clip-path-113)"><g style="clip-path:url(#clip-path-2)"><g style="clip-path:url(#clip-path-2)"><path d="M981.1,117.89a13.46,13.46,0,0,1-1.77,7.5,9.63,9.63,0,0,0-1.39,5.16,4.54,4.54,0,0,1-.23,1.49.88.88,0,0,1-.92.64c-.57,0-.61-.51-.57-.88.16-1.21.35-2.42.58-3.61A27.36,27.36,0,0,1,981.1,117.89Z" style="fill:#f9da82"/></g></g></g><g style="clip-path:url(#clip-path-116)"><g style="clip-path:url(#clip-path-2)"><g style="clip-path:url(#clip-path-2)"><path d="M1034.73,44.73a38.91,38.91,0,0,1-4.12,11.05c-1.26-2.51.31-4.23,1-5.85S1032.37,46.12,1034.73,44.73Z" style="fill:#f9da82"/></g></g></g><g style="clip-path:url(#clip-path-1547)"><g style="clip-path:url(#clip-path-1548)"><g style="clip-path:url(#clip-path-1548)"><path d="M97.5,163.86l2.31-.14c-2.3,7.32-4.64,14.5-6.83,21.73a116.67,116.67,0,0,0-4.34,19.44,37.59,37.59,0,0,0-.29,7.64c.32,3.75,2.7,9.15,7.57,9.29a3.71,3.71,0,0,1,1.76.51c3,1.89,6,1.37,9.27-.12a13.94,13.94,0,0,1-1.12,4.58c-2,5.25-2.42,10.75-3,16.24a6.53,6.53,0,0,0,.89,3.48c.52,1.19,1.08,1.94,2.47,1.57.94,2.3,3.54,1.56,5.07,2.79,1.2,1,2.66.87,4.08.77a18.56,18.56,0,0,0,9.66-3.57,50.4,50.4,0,0,0,7.38-6c.67-.72,1.63-1.31,1.31-2.58,0-.23.2-.76.33-.76,2.86-.14,3.22-3,4.9-4.49s2.75-3.77,4.06-5.74c3.75-5.61,7-11.52,10.26-17.43a281,281,0,0,0,14.35-30.83c3.57-8.92,6.58-18,9.65-27.1,2.78-8.23,5.11-16.58,7.25-25,1.27-4.94,2.6-9.91,3.42-14.89.75-4.58,1.35-9.26,1.84-13.91.36-3.39-.09-6.84.62-10.14.92-4.27.14-8.59,1.07-12.88.66-3.07.61-6.35,1.44-9.47.6-2.21,0-4.46,0-6.71.13-4,2.17-7.73,1.41-11.81a3.51,3.51,0,0,1,.55-1.73,12.52,12.52,0,0,0,.93-5.36c0-2.83.56-5.68.86-8.52a70,70,0,0,0,.72-10.36c-.17-5.11-2.78-8.33-7-10.67-.71-.4-1.46-.76-2.18-1.14a2.46,2.46,0,0,1-1.71-2.53c.05-2-1.37-2.5-3.06-1.3A8.82,8.82,0,0,0,180.49,11c-1.92,5-3.08,10.18-4.54,15.3-.86,3-1.72,6.05-2.7,9.47a4.81,4.81,0,0,1-1.39-4.44,130.16,130.16,0,0,0,0-15.3,15.08,15.08,0,0,0-1.51-5.58c-.75-1.7-1.59-2.86-3.93-2.45-2,.35-3.68-1-5.24-2.17-.93-.67-1.75-1.43-3-1a1.52,1.52,0,0,1-1.61-.63c-.42-.43-.89-1-1.41-1.12-2.46-.43-3-2.68-4.45-4.17-2.21-2.32-2.48-5.21-3.29-8a5.64,5.64,0,0,0-.9-1.92c-1.18-1.49-1.37-1.41-2.93-.35A10.85,10.85,0,0,0,139.31-5c-3.41,11.59-7.78,22.84-12.27,34-1,2.38-1.87,4.76-2.84,7.13a6.92,6.92,0,0,1-.89,1.57,1,1,0,0,1-.86.17c-.34-.05-.44-.37-.39-.7a12.31,12.31,0,0,1,1.24-5,12.79,12.79,0,0,0,1.84-7.32,14,14,0,0,1,.47-3.63c.26-1.35,1.25-2.66.12-4.05,1.64-2.13.15-4.81,1.18-7,.94-2,.83-4.08,1.24-6.09.92-4.61.59-9.34,1.73-13.91,1-4.14,1.24-8.46,2.36-12.61.26-1,.39-2,.67-3a24.94,24.94,0,0,0,1.38-9.34,2.2,2.2,0,0,1,0-.92c2-5.76,1.94-11.87,3-17.78.9-5.24,1.76-10.54,2.54-15.83,1-6.86,1.61-13.79,3.36-20.55a20.22,20.22,0,0,0,.23-10.31c-.08-.3-.3-.66-.19-.88,1.54-3.25-.52-6.17-1-9.17a8.79,8.79,0,0,0-4.55-6.73,2.1,2.1,0,0,0-2.9.43,19.9,19.9,0,0,0-4.12,6.4,22.89,22.89,0,0,0-1.49,4.36c-1.87,8.28-4.31,16.41-5.87,24.77-.68,3.6-1.74,7.14-2.61,10.71-2.36,9.63-4.62,19.29-7.11,28.89q-3.84,14.87-8.46,29.5c-2.22,7-4.33,14.09-6.53,21.11C95.28,19.67,92,30,88.72,40.34Q81.55,63,74.08,85.6c-3.26,9.8-7,19.44-10.61,29.12-4.66,12.47-10,24.65-15.39,36.8C43,163,37.67,174.44,32.27,185.81c-5.73,12.12-11.93,24-16.94,36.45-1.21,3-1.59,6.32-2.34,9.5a2.38,2.38,0,0,0,0,.92c.74,3.28.94,3.79.31,5.88-.43,1.38-.51,2.44.6,3.5a2.38,2.38,0,0,1,.67,1.68c0,.53.14,1.21.61,1.33,2.6.65,3.92,3.48,6.84,3.77a9,9,0,0,1,4.48,1.87,6.24,6.24,0,0,0,4.36,1c4.68-.2,8.37-2.84,12.33-4.8,1.49-.74,2.31-2.32,3.28-3.61,4.37-5.8,8.61-11.7,12.84-17.61s8.49-11.77,12.51-17.81c1.59-2.37,3.47-4.58,4.1-7.46.15-.67.75-.91,1.19-1.33,1.23-1.21,3.07-2.22,1.79-4.5a1.2,1.2,0,0,1,.46-1c2.62-.68,3.25-3.21,4.71-4.95,1.32-1.57,1.84-3.66,3.26-5.18,1.07-1.12-.5-2.54.6-3.75.9-1,2.38-1.13,3.06-2.43a25.37,25.37,0,0,0,2.19-5.32c.17-.71.3-1.44,1.07-1.76C97,169,97.55,166.69,97.5,163.86Z" style="fill:#a8ca5a"/></g></g></g><g style="clip-path:url(#clip-path-1550)"><g style="clip-path:url(#clip-path-1548)"><g style="clip-path:url(#clip-path-1548)"><path d="M71.56,290.47c2.43-1.77,3.13-4.1,4-6.22,2-4.82,4.66-9.34,7.14-13.91,6.71-12.35,13.84-24.45,20.6-36.77,8-14.53,15.45-29.28,22.88-44.07,4.72-9.41,9.61-18.73,15-27.76,5.92-9.91,11.51-20.05,18.59-29.22,6.7-8.68,13.13-17.57,20.43-25.79,2.3-2.59,4.43-5.3,6.64-8,2.82-3.39,6.09-6.37,9-9.68s6.21-6.24,8.93-9.74c1.39-1.78,3.05-3.38,4.31-5.27.35-.54.91-1,.82-1.85a2.46,2.46,0,0,0-2.29.85c-2.44,2.13-4.92,4.19-7.27,6.42-3.57,3.39-7.26,6.66-10.62,10.28-5.54,6-11.17,11.89-16.69,17.89-6.13,6.67-11.93,13.59-17.37,20.83a210.93,210.93,0,0,0-15.36,23.14c-3.29,5.81-6.63,11.6-9.77,17.48-4.06,7.58-8,15.24-11.89,22.9-2.66,5.24-5.15,10.58-7.8,15.84s-5.51,10.71-8.28,16.06c-2.17,4.18-4.34,8.36-6.56,12.51q-2.3,4.28-4.78,8.44c-2.53,4.23-4.57,8.72-6.87,13.06a150.31,150.31,0,0,0-6.58,14.45c-1.93,4.77-4.1,9.45-5.8,14.31C71.61,287.85,71.83,289,71.56,290.47Z" style="fill:#08bfbe"/></g></g></g><g style="clip-path:url(#clip-path-1553)"><g style="clip-path:url(#clip-path-1548)"><g style="clip-path:url(#clip-path-1548)"><path d="M86.82,305.86A9.14,9.14,0,0,0,90.61,302c1.27-2.06,2.43-4.2,3.68-6.29,2.82-4.74,5.79-9.39,8.44-14.22,2.2-4,4.31-8,6.48-12,3.11-5.67,6.32-11.26,9.73-16.76,4.93-7.94,9.78-15.94,14.63-23.93,4.13-6.79,8.07-13.66,12.41-20.32s9-13.43,13.71-20c5-7,10-14,15.17-20.91,4-5.29,8.12-10.45,12.33-15.57s9-9.87,13.18-15.07c2.66-3.31,5.71-6.27,8.24-9.7,1-1.41,2.18-2.77,3.28-4.14a5.87,5.87,0,0,0,1-1.94.88.88,0,0,0-.33-1.15,1,1,0,0,0-1.22,0,12.61,12.61,0,0,0-1.2,1q-6.33,6.78-12.63,13.58c-3.34,3.61-6.72,7.2-10,10.86-3.53,3.91-7,7.9-10.48,11.86a230.45,230.45,0,0,0-15.7,20.48c-4,5.73-8.07,11.42-12,17.22-2.45,3.67-4.85,7.36-7.36,11-3.14,4.54-5.82,9.35-8.76,14-1.77,2.8-3.35,5.71-5.21,8.46-4.09,6.1-7.82,12.45-11.66,18.71-2.12,3.45-4,7-6,10.55q-4,7.28-7.84,14.58c-2.73,5.21-5.39,10.44-8,15.74-1.8,3.77-3.9,7.4-5.83,11.12A14.77,14.77,0,0,0,86.82,305.86Z" style="fill:#08bfbe"/></g></g></g><g style="clip-path:url(#clip-path-1556)"><g style="clip-path:url(#clip-path-1548)"><g style="clip-path:url(#clip-path-1548)"><path d="M184.46,73.47a18.7,18.7,0,0,0-5.2,4.09c-2.89,2.94-5.64,6-8.42,9s-5.48,5.77-8,8.8c-3.17,3.76-6.51,7.38-9.5,11.3-2.44,3.21-5.07,6.3-7.31,9.66-3.75,5.63-7.29,11.4-10.94,17.1-5,7.75-9.43,15.8-13.92,23.83-3.66,6.55-6.74,13.41-10,20.14-3.61,7.39-6.72,15-10.41,22.38-3.38,6.78-6.79,13.53-10.08,20.35-2.52,5.23-5.26,10.34-7.69,15.62-1.87,4.05-4.08,8-6.15,11.94-2.28,4.38-4.22,8.91-6.32,13.38-1.36,2.93-2.77,5.86-4.2,8.75a63.29,63.29,0,0,0-2.92,7.62,20.9,20.9,0,0,0-.48,2.91,9.8,9.8,0,0,0,3.1-3.64c2.73-4.63,5.08-9.45,7.66-14.17,3.85-7,8.19-13.81,11.86-20.95,2-3.91,4-7.88,5.93-11.83,2.31-4.69,4.55-9.41,6.91-14.07s4.34-9.17,6.53-13.76c5.12-10.69,9.68-21.63,14.68-32.37,2.41-5.21,5.24-10.21,8.06-15.21,5.5-9.75,11.13-19.41,17.34-28.72,2.13-3.19,4.4-6.29,6.3-9.6a91.94,91.94,0,0,1,8.17-11.2c1.44-1.79,2.42-4,4.06-5.57s3.09-3.51,4.62-5.26c.42-.49,1-.84.92-1.64a.7.7,0,0,1,.48-.69c2-.86,3.06-2.6,4.16-4.32a2.74,2.74,0,0,1,.54-.67c3.3-2.77,5.65-6.39,8.48-9.57A7.28,7.28,0,0,0,184.46,73.47Z" style="fill:#08bfbe"/></g></g></g><g style="clip-path:url(#clip-path-1559)"><g style="clip-path:url(#clip-path-1548)"><g style="clip-path:url(#clip-path-1548)"><path d="M203.39,104.45a60.46,60.46,0,0,0-7,5.86c-3.16,3-6.42,5.83-9.34,9-2.68,2.92-5.39,5.79-8,8.76-2.82,3.2-5.54,6.47-8.25,9.76-3.7,4.5-7.08,9.23-10.42,14-4,5.72-7.89,11.53-11.8,17.31s-7.63,12-11.31,18.11c-4.27,7.05-8.48,14.12-12.74,21.17-3.53,5.86-7.13,11.67-10.64,17.54-4.55,7.63-8.85,15.41-13.3,23.1-4.78,8.3-9,16.87-13.48,25.32-3.93,7.48-7.58,15.1-11.29,22.69a46.34,46.34,0,0,0-2,5.14c-.17.42-.45,1.07.21,1.35s1-.24,1.25-.68c1.57-2.39,3.19-4.75,4.66-7.21C86.27,285.1,92,274.16,98.1,263.38c6.78-12.06,13.51-24.14,20.49-36.08,4.45-7.62,9.24-15.06,13.63-22.72q7.83-13.68,15.77-27.32c1.26-2.15,2.66-4.24,4-6.36a4.38,4.38,0,0,0,.83-1.54c.18-1.37,1.36-2,2-3,1.27-2,2.54-4,3.78-6,3-4.9,6.53-9.43,9.65-14.23,3-4.63,6.53-8.89,9.83-13.32a46.33,46.33,0,0,1,5.34-6.07,33.75,33.75,0,0,0,4.43-5.19c1.29-1.89,3.11-3.23,4.55-5a26,26,0,0,0,2.43-2.78c1-1.66,2.7-2.69,4-4C200.45,108.12,202.34,106.69,203.39,104.45Z" style="fill:#08bfbe"/></g></g></g><g style="clip-path:url(#clip-path-1562)"><g style="clip-path:url(#clip-path-1548)"><g style="clip-path:url(#clip-path-1548)"><path d="M51,273.34c.6-.23.82-.81,1.12-1.3,2.67-4.64,5.06-9.43,7.83-14,2.43-4,4.69-8.16,7-12.27,3.6-6.5,7.53-12.81,11.26-19.23Q83,218.35,87.52,210c1.9-3.48,3.72-7,5.69-10.45,2.76-4.84,5.18-9.88,7.85-14.77,2.22-4.08,4.21-8.25,6.28-12.39,3.07-6.1,5.79-12.38,8.63-18.61,1.85-4.08,3.75-8.16,5.82-12.13,2.67-5.13,5.41-10.24,8.42-15.21,2.51-4.15,5.24-8.16,7.8-12.27,3.88-6.24,7.92-12.39,11.65-18.72,2.77-4.69,5.68-9.29,8.39-14,1.91-3.31,3.64-6.72,5.43-10.11a18.81,18.81,0,0,0,.77-2.07c.15-.41.42-.85-.08-1.17s-.88.06-1.16.35a39.11,39.11,0,0,0-5.48,6c-5.44,8.47-11,16.89-16.16,25.52-2.88,4.79-6,9.43-8.88,14.23-2.32,3.83-4.51,7.73-6.61,11.68-2.82,5.32-5.14,10.89-7.88,16.23-3.79,7.41-6.72,15.19-10.34,22.66-2.85,5.9-5.81,11.74-8.75,17.58-3.75,7.42-7.78,14.69-11.71,22-3.24,6.1-6.81,12-10.19,18s-6.9,12.14-10.65,18q-5,7.92-9.28,16.28c-2,3.91-3.57,8-5.3,12.11-.48,1.14-1.33,2.14-1.48,3.42C50.19,272.9,50.25,273.36,51,273.34Z" style="fill:#08bfbe"/></g></g></g><g style="clip-path:url(#clip-path-1567)"><g style="clip-path:url(#clip-path-1548)"><g style="clip-path:url(#clip-path-1548)"><path d="M70.28,21.41c-2.91-1.75-5.57-3.78-8.77-4.9-5.5-1.91-11-3.91-16.45-5.86a10.75,10.75,0,0,0-1.46-.46c-.8-.17-1.72-.36-2.27.41s.38,1.26.51,1.91c.76,3.4,3.35,4.63,6.32,5.19,5.23,1,10.24,2.74,15.37,4A11.35,11.35,0,0,0,70.28,21.41Z" style="fill:#f9da82"/></g></g></g><g style="clip-path:url(#clip-path-1570)"><g style="clip-path:url(#clip-path-1548)"><g style="clip-path:url(#clip-path-1548)"><path d="M102.09,23.42a19.17,19.17,0,0,0-5.27-5.06,91.58,91.58,0,0,0-11.1-5.82,5.88,5.88,0,0,0-1.45-.48c-1.07-.16-2.37-.84-3.21.11s.67,1.72.85,2.63c.57,3.06,3,4.2,5.46,5.25,2.91,1.22,5.69,2.81,8.78,3.58C98,24.11,99.89,24.66,102.09,23.42Z" style="fill:#f9da82"/></g></g></g><g style="clip-path:url(#clip-path-1577)"><g style="clip-path:url(#clip-path-1548)"><g style="clip-path:url(#clip-path-1548)"><path d="M148.74,16.73c.93.42,1.86.83,2.78,1.26a4.58,4.58,0,0,0,3,.24c1.93-.43,2.39-1.82,1.2-3.32-3.1-4-7.42-6.32-11.6-8.86A3.65,3.65,0,0,0,143,5.71c-1-.18-2.14-.57-2.84.43s.55,1.52,1,2.24,1.19,1.44,1.15,2.12c-.21,3.33,2.26,4.25,4.52,5.38.64.33,1.29.6,1.95.89A.08.08,0,0,1,148.74,16.73Z" style="fill:#f9da82"/></g></g></g><g style="clip-path:url(#clip-path-1592)"><g style="clip-path:url(#clip-path-1548)"><g style="clip-path:url(#clip-path-1548)"><path d="M194.09,37.46c.41-.88-.18-1.52-.71-2.09a20.64,20.64,0,0,0-3.85-3.49c-2.49-1.61-4.87-3.39-7.32-5.06a17.45,17.45,0,0,0-2.65-1.52c-.93-.39-2.1-.82-2.89.05s.47,1.58.65,2.4c.76,3.35,2.94,4.92,6.11,6,2,.74,3.76,2.11,6.2,2.1C191.09,35.86,192.13,38,194.09,37.46Z" style="fill:#f9da82"/></g></g></g><g style="clip-path:url(#clip-path-1595)"><g style="clip-path:url(#clip-path-1548)"><g style="clip-path:url(#clip-path-1548)"><path d="M151.21,43.24a12.88,12.88,0,0,0,4.36,1.44,2.77,2.77,0,0,0,2.92-1.23c.78-1.21.12-2.17-.62-3-2.42-2.86-5.58-4.73-8.84-6.46a4,4,0,0,0-2.06-.5c-1.75.08-2.26.85-1.36,2.3s2,2.84,1.77,4.74c-.08.68.53,1.07,1.09,1.36Z" style="fill:#f9da82"/></g></g></g><g style="clip-path:url(#clip-path-1598)"><g style="clip-path:url(#clip-path-1548)"><g style="clip-path:url(#clip-path-1548)"><path d="M60.93,2.62a23.84,23.84,0,0,0,5.6,1.86,6,6,0,0,0,2.43,0C71,4,71.3,3.14,69.83,1.59A22.26,22.26,0,0,0,60.5-4c-1.34-.46-2.6-1.25-4.11-1.13S54.55-4.5,55.18-3C56.38-.18,57.92,2.24,60.93,2.62Z" style="fill:#f9da82"/></g></g></g><g style="clip-path:url(#clip-path-1603)"><g style="clip-path:url(#clip-path-1548)"><g style="clip-path:url(#clip-path-1548)"><path d="M224.19,18.14c-1.27-3.37-3.89-5.26-6.1-7.42-1.31-1.27-3-2.17-4.38-3.32a4.94,4.94,0,0,0-2.26-.83,1.83,1.83,0,0,0-1.93.62c-.57.76,0,1.33.49,1.85,1.08,1.14,1.93,2.32,1.67,4.06-.16,1.07.74,1.56,1.58,2,1.87,1,3.76,2,5.59,3.09S222.16,18.63,224.19,18.14Z" style="fill:#f9da82"/></g></g></g><g style="clip-path:url(#clip-path-1606)"><g style="clip-path:url(#clip-path-1548)"><g style="clip-path:url(#clip-path-1548)"><path d="M131.46,41.83c-3.29-4.83-7.75-7.72-12.82-9.8a3.93,3.93,0,0,0-1.47-.29c-1.23,0-1.63.69-1.21,1.81,1.85,4.93,5.59,7.67,10.48,9.13C128.14,43.18,129.6,42.42,131.46,41.83Z" style="fill:#f9da82"/></g></g></g><g style="clip-path:url(#clip-path-1621)"><g style="clip-path:url(#clip-path-1548)"><g style="clip-path:url(#clip-path-1548)"><path d="M73.71,33.61c.86,3.15,3.61,4.07,6.2,5.06,3.94,1.52,8.24,2.09,12,4.17,1.16.65,2.57.59,3.71,1.35a.75.75,0,0,0,1-.35.85.85,0,0,0-.44-1.05c-1.5-.87-3-1.77-4.55-2.54a129.48,129.48,0,0,0-15.8-6.66A2.28,2.28,0,0,0,73.71,33.61Z" style="fill:#f9da82"/></g></g></g><g style="clip-path:url(#clip-path-1624)"><g style="clip-path:url(#clip-path-1548)"><g style="clip-path:url(#clip-path-1548)"><path d="M127.62,19.51a29.63,29.63,0,0,0-13.84-9.69,3.29,3.29,0,0,0-1.21-.12c-.92,0-1.44.5-.9,1.36a10.77,10.77,0,0,0,3.49,4c3.14,1.92,6.69,2.68,9.91,4.29A2.77,2.77,0,0,0,127.62,19.51Z" style="fill:#f9da82"/></g></g></g><g style="clip-path:url(#clip-path-1629)"><g style="clip-path:url(#clip-path-1548)"><g style="clip-path:url(#clip-path-1548)"><path d="M184.34,9.51c-2.76-4.77-7.09-7.57-11.67-10.1a3.7,3.7,0,0,0-.84-.37c-.7-.2-1.48-.45-2.05.08-.74.67,0,1.31.29,1.9a6.64,6.64,0,0,0,2.37,3.12A59.83,59.83,0,0,0,184.34,9.51Z" style="fill:#f9da82"/></g></g></g><g style="clip-path:url(#clip-path-1644)"><g style="clip-path:url(#clip-path-1645)"><g style="clip-path:url(#clip-path-1646)"><path d="M220,1308.89c-.33,1.27-2.56.22-3.65.58C217.12,1307.54,218.55,1309,220,1308.89Z" style="fill:#a8ca5a;fill-rule:evenodd"/></g></g></g><g style="clip-path:url(#clip-path-1647)"><g style="clip-path:url(#clip-path-1645)"><g style="clip-path:url(#clip-path-1646)"><path d="M222.71,1309.44c5-1,10.44.32,14.63,1.07C232.7,1311,228.2,1309.85,222.71,1309.44Z" style="fill:#a8ca5a;fill-rule:evenodd"/></g></g></g><g style="clip-path:url(#clip-path-1652)"><g style="clip-path:url(#clip-path-1645)"><g style="clip-path:url(#clip-path-1646)"><path d="M392.1,1401.36c-.42,2.82,3,.8,1.86,4.54-1,2.59-3.5,2.77-5.46,2.86-.32,4,2.16,4.55,3.71,6.23-3-.7-5.67-2-6.44-3.94-4.45,3-9.33-3.42-15.12-5-1.88-.45-.84,2.72-2.72,2.28-3.2-1.52-8.49-.39-10.09-3.94a23,23,0,0,1-14.65-3.35,64.79,64.79,0,0,1-10.06-.51c-6.92-1.12-14.27-4.86-21.07-5.6-1.47-.17-3.12.68-4.56.59-7.39-.48-14-3.85-20.16-5.6a10.56,10.56,0,0,0-3.64,1.72c-6.76-2-13.72-3.75-19.25-7.31-4.42,1.08-9.65-1.19-15.11-2.21-9.84-1.84-22.52-1-27-7.84-1.64-2.49-1.08-6.27-3.72-7.94-2.22-12.78.94-21,3.41-30.7,4.4-5.11,9.65-9.16,14.51-13.72-4.48-5.87-15-.86-19.23-5-3.86,1.22-8.38,1.89-12.81.05-1,1-2.93.89-4.1,1.72-16.6-3.8-36-2.19-49.84-3.19,10-3.2,17.68-3.33,27.42-.68,19.52-3.22,38.06-.26,59.42,1.43,5.16.41,9-.29,12.78-2.89-1.93-2.33-7-.69-9.61-2.23,2.83-2,10.71,2.34,14.16-.63-22.83-4.39-51.18-5.3-75-4.22,5.84,2.77,10.1,1,17.84,1.63-15.18,1.43-37.88.68-50.75-1.49-1,.24-1.44,1.23-2.26,1.72a15.64,15.64,0,0,0-6.4,0c2.6,2.71,10,1.87,15.09,1.65-4.49,3.23-10.53,1.17-14.59,4.61-15.53-6.1-43.61,4.72-53.57-12.28-5.17-28.25,11.57-42.31,22.4-56.36-6.7-2.54-18,.61-27.45-3.3-4.89,2.72-16.14,1.2-22.4-1-.16,1,.36,1.08.93,1.13-10.09,2.67-21.79-1.38-34.31-2.69-15.41-1.61-31.91-.63-43.91-4.93-3.23-4-8.25-5.6-10.16-13-.52-2-.09-5.23-.53-8.53-.68-5.26-3-12.34-2-19.31.57-3.76,3.21-6.73,4.5-9.68,33.86,7.65,76.17,8.15,117.07,10.3a355.18,355.18,0,0,1,46.21,5.48c15.54,3,22.93,2.74,29.82,14.07,2.7,9,2.67,15.59,2.94,25-2.55,2.68-3.68,7.11-6.32,9.68a20.19,20.19,0,0,1-.4,6.25,14,14,0,0,1-4.08,4c.19,2,2,1.1.93,3.4a33.68,33.68,0,0,0-5.91,2.87c35.07,2.57,81.75,1.88,116.15,8,15.54,2.78,30.52,10.32,38.12,23.14.73,6.3.29,10.77.59,17.06-.16,2.48-3.3,4.53-.86,6.82-.95,1.41-4.61,5-2.22,6.83-1.85,1.49-3.06,3.76-6.38,3.44-3.47,9.26-11.42,12.19-20.89,14.86.85,2.05,3.18,1.69,5,1.12,1.88-.27-.43,1.54,1.38,1.7,29.06,7.08,64.52,12.1,91.61,24,6.7,3,13.75,5.64,17.89,9s5.77,10,4.71,17.6c-1.13.09-1.42-.88-2.29-1.13-1,1.38.64,3,1,4.55C395.62,1402.11,393.12,1402.71,392.1,1401.36ZM47.45,1226.07c4.66.23,8.91,2.38,12.8.52C55.76,1223.9,51.73,1224.16,47.45,1226.07Zm58.53,3.16c1.72.23,5.58,2.21,6.39,0C110.19,1228.45,108,1227.51,106,1229.23ZM34.71,1233c4.56,3.45,12.27,1.49,17.84,2.19,0,.72-.57.79-.44,1.7a13.76,13.76,0,0,0,9.13-1.17c-.7,2,1.55.33,1.38,1.69,10.35-2.17,25.44,3.43,35.66,1.56,1.49-.27,2.31-1.66,3.64-1.72,5-.23,10.17,4.94,13.71-.63-26.38-4.1-50.62-.66-76.36-4.79a49.15,49.15,0,0,0-14.17.06C28,1234.51,31,1233.07,34.71,1233Zm-14.61,2.9H17.83C17.67,1237.81,20.48,1238.25,20.1,1235.86Zm45.75,4.92c1.58.06,2.15-1.13,3.18-1.72C67.88,1238.54,65.62,1238.12,65.85,1240.78Zm4.55-1.16c.64,2.79,4.18,1.52,4.58-.59C73,1238.64,72.41,1240,70.4,1239.62Zm40.71,2.66c-4.07-1.77-9.39-1.94-14.64-2.21C100.05,1243.46,105.62,1240.79,111.11,1242.28Zm36.71,18c-3.37,3.2-10.06,2.3-12.74,6.3,6,.62,12.34-1.1,16-.06-.51-3.25,2.24-2.5,2.24-5.12-1.42-1.69-.88,2.22-3.19,1.15C149.2,1262,149.37,1260.06,147.82,1260.31Zm148.28,26.08c-.37-1.48-2.55-3.63-3.22-2.84C294.38,1284,294.43,1286.2,296.1,1286.39Zm-98.17,11.79c0,1.51-1.43,1.24-1.34,2.85-1.1-1.91-3.33-.47-3.65,1.72,4.67-1.12,12.73,1.45,17.37-1.78a2,2,0,0,1-1.85-1.13c6.86-.88,12.51,0,17.35-1.79C217.21,1297.33,208.41,1296.19,197.93,1298.18Zm52.61,5.46c-4,.14-6.65-2.31-9.61-2.24.1,0-.16,1.62-.45,1.71-2.08.69-5.19-.86-7.78-1.67.73-.8,2.35-.49,2.73-1.72-1.28-1.1-4.59-1.84-5.49.59,1.8,1.46,2.42.5,1.41,3.42,6.73-.16,12.81,1.56,17.82.48,1,3.31,6.25,1.3,9.16,2.24C257.6,1304.06,248.7,1301.85,250.54,1303.64Zm-90.93,2.67c3.47,1.68,7.39-.61,11.43,0C168.38,1304.13,161.63,1305.11,159.61,1306.31Zm183,83.89c-13.8,2.31-30.13-6.87-43.45-5.49,1.74,1.55,3.06.24,5.94.54,8.25,5.25,17.08,3.78,26.56,6.13,3.52.88,7.12,3.83,11,4.5,9.6,1.67,19.26,3.63,28.83,4.43C362.4,1396.29,351.2,1394.92,342.64,1390.2Zm-6.34,6.28c-.32-.45-2.56-1.26-2.75,0C333.88,1396.93,336.11,1397.74,336.3,1396.48Z" style="fill:#a8ca5a;fill-rule:evenodd"/></g></g></g><g style="clip-path:url(#clip-path-1655)"><g style="clip-path:url(#clip-path-1645)"><g style="clip-path:url(#clip-path-1646)"><path d="M198.94,1309c6.23-2.78,12.79,0,16.91-.07C210.67,1309.7,203.48,1308.13,198.94,1309Z" style="fill:#a8ca5a;fill-rule:evenodd"/></g></g></g><g style="clip-path:url(#clip-path-1658)"><g style="clip-path:url(#clip-path-1659)"><g style="clip-path:url(#clip-path-1659)"><path d="M1059.13,1227.65c13.58,31.73,38.33,56.25,71.53,70.92a161.74,161.74,0,0,0,42.53,12.24l7.6,15.88a20.81,20.81,0,0,0,20.27,35.48,21.11,21.11,0,0,0,1.85,6.19l.34.7a20.44,20.44,0,0,0,26.51,9.91,20.12,20.12,0,0,0,1.88,6.42,20.85,20.85,0,0,0,27.79,9.76l19.84-9.48a20.86,20.86,0,0,0,9.84-27.76,20.4,20.4,0,0,0-3.81-5.49,20.44,20.44,0,0,0,8.92-26.86l-.32-.71a21.32,21.32,0,0,0-3.66-5.33,20.81,20.81,0,0,0-10.55-38.39l-8.27-17.3a161.31,161.31,0,0,0,17.18-40.78c9.44-35,5.89-69.69-10.28-100.21a2.48,2.48,0,0,0-.24-.67c-.28-.57-.52-1.24-.85-2-27.28-57.07-98.66-80-159.15-51.06S1030.61,1168,1058,1225.05a13.33,13.33,0,0,0,.93,1.76A2.15,2.15,0,0,1,1059.13,1227.65Zm185.36,151.43a6.65,6.65,0,0,1,3.11-8.81l19.84-9.48a6.6,6.6,0,1,1,5.7,11.91l-19.84,9.49A6.63,6.63,0,0,1,1244.49,1379.08Zm-28.34-16.35-.33-.7a6.18,6.18,0,0,1,2.93-8.24l54-25.85a6.19,6.19,0,0,1,8.26,2.9l.32.7a6.18,6.18,0,0,1-2.91,8.24l-54.13,25.88a6.19,6.19,0,0,1-8.25-2.9Zm-27.69-17.52a6.65,6.65,0,0,1,3.11-8.81l84.7-40.49a6.6,6.6,0,1,1,5.68,11.91l-84.62,40.46A6.65,6.65,0,0,1,1188.46,1345.21Zm.75-110.28,9.47,19.79a56.18,56.18,0,0,1-32.46,1.75c-13.94-3.58-25.31-12.86-33-26.9-7.42-13.52-10.58-28.06-9.74-44.44,1-18.79,7.41-40.44,19.15-64.22,48,11.18,78.48,31.64,90.56,60.88,6.11,14.77,6.19,29.45.23,42.54a56.94,56.94,0,0,1-22,24.35l-9.49-19.86,16.86-47.57a7.08,7.08,0,0,0-13.37-4.69l-12.1,34.11-10.49-22,10.2-28.81a7.09,7.09,0,1,0-13.37-4.7l-5.43,15.35-8.7-18.19a7.12,7.12,0,0,0-12.84,6.14l8.6,18-15.14-5.28a7.09,7.09,0,1,0-4.74,13.36l28.45,10,10.62,22.24-34.13-12a7.09,7.09,0,1,0-4.74,13.36l47.6,16.75ZM1072,1221.32a12.19,12.19,0,0,0-.8-1.51,5.32,5.32,0,0,1-.49-.87c-23.92-50,.11-111.47,53.47-137s116.26-5.61,140.21,44.47c.12.25.21.6.39,1s.37.93.58,1.38l.22.45c14.75,27.73,17.88,58,9.23,90.09-6.5,24-17.32,39.83-17.42,40a7.09,7.09,0,0,0-.55,7.1l9,18.77-29.92,14.31-18.12-37.93a71.06,71.06,0,0,0,28.74-31.28c7.68-16.74,7.68-35.38,0-53.91-14.48-34.93-50.19-58.62-106.21-70.55a7.06,7.06,0,0,0-7.83,3.75l-1,2c-25.52,50.37-29,91.17-10.69,124.8,9.59,17.6,24.1,29.3,42,33.83a71.21,71.21,0,0,0,42.14-2.61l18.16,38-29.73,14.2-9-18.76a7.1,7.1,0,0,0-5.87-4c-.17,0-19.6-1.56-42.45-11.73-30.11-13.47-51.59-34.82-63.84-63.58Z" style="fill:#a7c957"/></g></g></g></svg>