<svg id="Layer_1" data-name="Layer 1" xmlns="http://www.w3.org/2000/svg" width="57" height="6" viewBox="0 0 57 6"><title>Artboard 1</title><path d="M53.75,2.6C53,1.44,52.14,0,50.35,0S47.67,1.44,47,2.6s-1.23,1.9-2.2,1.9-1.43-.75-2.19-1.9S41,0,39.16,0s-2.68,1.44-3.4,2.6-1.26,1.9-2.2,1.9-1.43-.75-2.19-1.9S29.76,0,28,0s-2.68,1.44-3.4,2.6-1.23,1.9-2.19,1.9-1.44-.75-2.19-1.9S18.57,0,16.78,0s-2.68,1.44-3.4,2.6-1.23,1.9-2.19,1.9S9.75,3.75,9,2.6,7.38,0,5.59,0,2.91,1.44,2.19,2.6,1,4.5,0,4.5V6C1.79,6,2.68,4.56,3.4,3.4S4.64,1.5,5.59,1.5,7,2.25,7.78,3.4,9.4,6,11.19,6s2.68-1.44,3.4-2.6,1.22-1.9,2.19-1.9,1.44.75,2.19,1.9S20.59,6,22.38,6s2.68-1.44,3.4-2.6S27,1.5,28,1.5s1.44.75,2.19,1.9S31.77,6,33.56,6,36.24,4.56,37,3.4s1.24-1.9,2.2-1.9,1.44.75,2.19,1.9S43,6,44.75,6s2.68-1.44,3.4-2.6,1.24-1.9,2.2-1.9,1.44.75,2.19,1.9S54.15,6,55.94,6h.27V4.5h-.27C55,4.5,54.49,3.75,53.75,2.6Z" style="fill:#04bfbf;fill-rule:evenodd"/></svg>