<svg width="1440" height="330" xmlns="http://www.w3.org/2000/svg">

 <g>
  <title>Layer 1</title>
  <path stroke="null" id="svg_1" d="m0,166.40409l34.3,12.01048c34.3,11.56149 102.7,36.25593 171.7,35.91918c68.3,0.33674 137,-24.3577 205,-53.87878c69,-29.97007 138,-65.88925 206,-47.92966c68.7,17.95959 137,89.79796 206,113.70667c68.4,24.3577 137,-0.33674 206,-17.95959c68.1,-18.29633 137,-29.52108 205,-29.85782c68.9,0.33674 137,11.56149 172,17.95959l34,5.94911l0,143.67673l-34.3,0c-34.3,0 -102.7,0 -171.7,0c-68.3,0 -137,0 -205,0c-69,0 -138,0 -206,0c-68.7,0 -137,0 -206,0c-68.4,0 -137,0 -206,0c-68.1,0 -137,0 -205,0c-68.9,0 -137,0 -172,0l-34,0l0,-179.59592z" fill="#fff"/>
 </g>
</svg>